<?xml version="1.0" encoding="UTF-8"?>
<!DOCTYPE svg PUBLIC "-//W3C//DTD SVG 1.1//EN" "http://www.w3.org/Graphics/SVG/1.1/DTD/svg11.dtd">
<svg xmlns="http://www.w3.org/2000/svg" version="1.1" width="1024px" height="1024px" style="shape-rendering:geometricPrecision; text-rendering:geometricPrecision; image-rendering:optimizeQuality; fill-rule:evenodd; clip-rule:evenodd" xmlns:xlink="http://www.w3.org/1999/xlink">
<g><path style="opacity:1" fill="#000000" d="M 419.5,5.5 C 420.833,6.16667 420.833,6.16667 419.5,5.5 Z"/></g>
<g><path style="opacity:1" fill="#000000" d="M 3.5,13.5 C 4.83333,14.1667 4.83333,14.1667 3.5,13.5 Z"/></g>
<g><path style="opacity:1" fill="#000000" d="M 291.5,13.5 C 292.833,14.1667 292.833,14.1667 291.5,13.5 Z"/></g>
<g><path style="opacity:1" fill="#000000" d="M 635.5,13.5 C 636.833,14.1667 636.833,14.1667 635.5,13.5 Z"/></g>
<g><path style="opacity:1" fill="#000000" d="M 659.5,13.5 C 660.833,14.1667 660.833,14.1667 659.5,13.5 Z"/></g>
<g><path style="opacity:1" fill="#000000" d="M 723.5,13.5 C 724.833,14.1667 724.833,14.1667 723.5,13.5 Z"/></g>
<g><path style="opacity:1" fill="#000000" d="M 411.5,21.5 C 412.833,22.1667 412.833,22.1667 411.5,21.5 Z"/></g>
<g><path style="opacity:1" fill="#000000" d="M 19.5,29.5 C 20.8333,30.1667 20.8333,30.1667 19.5,29.5 Z"/></g>
<g><path style="opacity:1" fill="#000000" d="M 467.5,29.5 C 468.833,30.1667 468.833,30.1667 467.5,29.5 Z"/></g>
<g><path style="opacity:1" fill="#000000" d="M 731.5,29.5 C 732.833,30.1667 732.833,30.1667 731.5,29.5 Z"/></g>
<g><path style="opacity:1" fill="#000000" d="M 555.5,37.5 C 556.833,38.1667 556.833,38.1667 555.5,37.5 Z"/></g>
<g><path style="opacity:1" fill="#000000" d="M 267.5,53.5 C 268.833,54.1667 268.833,54.1667 267.5,53.5 Z"/></g>
<g><path style="opacity:1" fill="#000000" d="M 307.5,53.5 C 308.833,54.1667 308.833,54.1667 307.5,53.5 Z"/></g>
<g><path style="opacity:1" fill="#000000" d="M 107.5,61.5 C 108.833,62.1667 108.833,62.1667 107.5,61.5 Z"/></g>
<g><path style="opacity:1" fill="#000000" d="M 651.5,61.5 C 652.833,62.1667 652.833,62.1667 651.5,61.5 Z"/></g>
<g><path style="opacity:1" fill="#000000" d="M 795.5,61.5 C 796.833,62.1667 796.833,62.1667 795.5,61.5 Z"/></g>
<g><path style="opacity:1" fill="#000000" d="M 315.5,69.5 C 316.833,70.1667 316.833,70.1667 315.5,69.5 Z"/></g>
<g><path style="opacity:1" fill="#000000" d="M 403.5,69.5 C 404.833,70.1667 404.833,70.1667 403.5,69.5 Z"/></g>
<g><path style="opacity:1" fill="#000000" d="M 803.5,69.5 C 804.833,70.1667 804.833,70.1667 803.5,69.5 Z"/></g>
<g><path style="opacity:1" fill="#000000" d="M 963.5,101.5 C 964.833,102.167 964.833,102.167 963.5,101.5 Z"/></g>
<g><path style="opacity:1" fill="#000000" d="M 883.5,125.5 C 884.833,126.167 884.833,126.167 883.5,125.5 Z"/></g>
<g><path style="opacity:1" fill="#000000" d="M 259.5,141.5 C 260.833,142.167 260.833,142.167 259.5,141.5 Z"/></g>
<g><path style="opacity:1" fill="#f90000" d="M 611.5,149.5 C 612.833,150.167 612.833,150.167 611.5,149.5 Z"/></g>
<g><path style="opacity:1" fill="#000000" d="M 683.5,149.5 C 684.833,150.167 684.833,150.167 683.5,149.5 Z"/></g>
<g><path style="opacity:1" fill="#000000" d="M 899.5,181.5 C 900.833,182.167 900.833,182.167 899.5,181.5 Z"/></g>
<g><path style="opacity:1" fill="#afae3c" d="M 527.5,200.5 C 528.601,199.402 529.934,199.235 531.5,200C 530.207,200.49 528.873,200.657 527.5,200.5 Z"/></g>
<g><path style="opacity:1" fill="#f9fa00" d="M 602.5,199.5 C 603.833,200.167 603.833,200.167 602.5,199.5 Z"/></g>
<g><path style="opacity:1" fill="#d35100" d="M 605.5,200.5 C 605.897,199.475 606.563,199.308 607.5,200C 606.906,200.464 606.239,200.631 605.5,200.5 Z"/></g>
<g><path style="opacity:1" fill="#f90000" d="M 609.5,199.5 C 610.833,200.167 610.833,200.167 609.5,199.5 Z"/></g>
<g><path style="opacity:1" fill="#7c7d00" d="M 513.5,200.5 C 514.833,201.167 514.833,201.167 513.5,200.5 Z"/></g>
<g><path style="opacity:1" fill="#f9fa00" d="M 515.5,201.5 C 516.251,200.427 517.251,200.26 518.5,201C 517.552,201.483 516.552,201.649 515.5,201.5 Z"/></g>
<g><path style="opacity:1" fill="#f9fa00" d="M 612.5,200.5 C 613.833,201.167 613.833,201.167 612.5,200.5 Z"/></g>
<g><path style="opacity:1" fill="#aa6c00" d="M 617.5,201.5 C 617.897,200.475 618.563,200.308 619.5,201C 618.906,201.464 618.239,201.631 617.5,201.5 Z"/></g>
<g><path style="opacity:1" fill="#f90000" d="M 493.5,201.5 C 494.833,202.167 494.833,202.167 493.5,201.5 Z"/></g>
<g><path style="opacity:1" fill="#f90000" d="M 507.5,201.5 C 508.833,202.167 508.833,202.167 507.5,201.5 Z"/></g>
<g><path style="opacity:1" fill="#f90000" d="M 509.5,201.5 C 510.833,202.167 510.833,202.167 509.5,201.5 Z"/></g>
<g><path style="opacity:1" fill="#c19f2f" d="M 527.5,201.5 C 525.735,202.461 523.735,202.795 521.5,202.5C 521.586,201.504 521.252,200.671 520.5,200C 522.5,199.333 524.5,199.333 526.5,200C 522.774,201.043 523.107,201.543 527.5,201.5 Z"/></g>
<g><path style="opacity:1" fill="#7c7d00" d="M 624.5,201.5 C 625.833,202.167 625.833,202.167 624.5,201.5 Z"/></g>
<g><path style="opacity:1" fill="#f90000" d="M 627.5,201.5 C 628.833,202.167 628.833,202.167 627.5,201.5 Z"/></g>
<g><path style="opacity:1" fill="#f9fa00" d="M 499.5,202.5 C 500.833,203.167 500.833,203.167 499.5,202.5 Z"/></g>
<g><path style="opacity:1" fill="#7c7d00" d="M 502.5,202.5 C 503.833,203.167 503.833,203.167 502.5,202.5 Z"/></g>
<g><path style="opacity:1" fill="#f90000" d="M 629.5,202.5 C 630.833,203.167 630.833,203.167 629.5,202.5 Z"/></g>
<g><path style="opacity:1" fill="#ecb823" d="M 633.5,203.5 C 634.251,202.427 635.251,202.26 636.5,203C 635.552,203.483 634.552,203.649 633.5,203.5 Z"/></g>
<g><path style="opacity:1" fill="#000000" d="M 107.5,205.5 C 108.833,206.167 108.833,206.167 107.5,205.5 Z"/></g>
<g><path style="opacity:1" fill="#f90000" d="M 483.5,205.5 C 484.833,206.167 484.833,206.167 483.5,205.5 Z"/></g>
<g><path style="opacity:1" fill="#f9fa00" d="M 463.5,207.5 C 464.833,208.167 464.833,208.167 463.5,207.5 Z"/></g>
<g><path style="opacity:1" fill="#949400" d="M 471.5,208.5 C 472.601,207.402 473.934,207.235 475.5,208C 474.207,208.49 472.873,208.657 471.5,208.5 Z"/></g>
<g><path style="opacity:1" fill="#ba7d3d" d="M 658.5,207.5 C 659.833,208.167 659.833,208.167 658.5,207.5 Z"/></g>
<g><path style="opacity:1" fill="#a4a400" d="M 660.5,208.5 C 660.897,207.475 661.563,207.308 662.5,208C 661.906,208.464 661.239,208.631 660.5,208.5 Z"/></g>
<g><path style="opacity:1" fill="#f90000" d="M 455.5,208.5 C 456.833,209.167 456.833,209.167 455.5,208.5 Z"/></g>
<g><path style="opacity:1" fill="#b78c40" d="M 471.5,208.5 C 471.5,208.833 471.5,209.167 471.5,209.5C 469.085,209.627 466.751,209.793 464.5,210C 465.126,209.25 465.626,208.416 466,207.5C 467.919,208.074 469.753,208.407 471.5,208.5 Z"/></g>
<g><path style="opacity:1" fill="#7c7d00" d="M 666.5,208.5 C 667.833,209.167 667.833,209.167 666.5,208.5 Z"/></g>
<g><path style="opacity:1" fill="#f90000" d="M 671.5,210.5 C 670.833,209.167 670.833,209.167 671.5,210.5 Z"/></g>
<g><path style="opacity:1" fill="#f9fa00" d="M 459.5,210.5 C 460.833,211.167 460.833,211.167 459.5,210.5 Z"/></g>
<g><path style="opacity:1" fill="#a7a850" d="M 673.5,210.5 C 674.833,211.167 674.833,211.167 673.5,210.5 Z"/></g>
<g><path style="opacity:1" fill="#f90000" d="M 454.5,211.5 C 455.833,212.167 455.833,212.167 454.5,211.5 Z"/></g>
<g><path style="opacity:1" fill="#956431" d="M 678.5,211.5 C 679.833,212.167 679.833,212.167 678.5,211.5 Z"/></g>
<g><path style="opacity:1" fill="#815a1b" d="M 471.5,209.5 C 473.167,209.5 474.833,209.5 476.5,209.5C 477.675,209.281 478.675,209.614 479.5,210.5C 476.444,211.196 473.444,212.03 470.5,213C 471.766,213.309 472.933,213.809 474,214.5C 474.333,214.167 474.667,213.833 475,213.5C 475.195,215.207 475.195,216.874 475,218.5C 477.027,217.788 478.027,216.788 478,215.5C 480,216.167 482,216.833 484,217.5C 486.843,216.079 489.843,215.079 493,214.5C 494.377,216.754 495.877,218.92 497.5,221C 502.828,221.169 508.162,221.002 513.5,220.5C 499.29,223.14 484.956,225.807 470.5,228.5C 470.062,228.565 469.728,228.399 469.5,228C 475.113,226.543 480.78,225.21 486.5,224C 486.043,223.586 485.709,223.086 485.5,222.5C 486.5,221.667 487.5,220.833 488.5,220C 486.862,218.199 485.028,218.032 483,219.5C 482.05,218.978 481.216,218.311 480.5,217.5C 479.41,218.391 479.41,219.391 480.5,220.5C 479.833,220.833 479.167,221.167 478.5,221.5C 476.666,220.298 474.833,219.298 473,218.5C 470.912,219.308 468.912,220.308 467,221.5C 466.544,220.256 467.044,219.423 468.5,219C 465.604,219.021 462.771,218.854 460,218.5C 459.444,220.595 458.944,220.762 458.5,219C 458.905,218.055 459.572,217.388 460.5,217C 456.975,216.821 453.641,216.321 450.5,215.5C 457.46,213.343 464.46,211.343 471.5,209.5 Z"/></g>
<g><path style="opacity:1" fill="#b1731e" d="M 443.5,216.5 C 442.127,216.657 440.793,216.49 439.5,216C 441.066,215.235 442.399,215.402 443.5,216.5 Z"/></g>
<g><path style="opacity:1" fill="#bb5b38" d="M 691.5,216.5 C 692.601,215.402 693.934,215.235 695.5,216C 694.207,216.49 692.873,216.657 691.5,216.5 Z"/></g>
<g><path style="opacity:1" fill="#f90000" d="M 701.5,216.5 C 700.833,215.167 700.833,215.167 701.5,216.5 Z"/></g>
<g><path style="opacity:1" fill="#f90000" d="M 426.5,216.5 C 427.833,217.167 427.833,217.167 426.5,216.5 Z"/></g>
<g><path style="opacity:1" fill="#7c7d00" d="M 436.5,216.5 C 437.833,217.167 437.833,217.167 436.5,216.5 Z"/></g>
<g><path style="opacity:1" fill="#f90000" d="M 696.5,216.5 C 697.833,217.167 697.833,217.167 696.5,216.5 Z"/></g>
<g><path style="opacity:1" fill="#f90000" d="M 701.5,216.5 C 702.833,217.167 702.833,217.167 701.5,216.5 Z"/></g>
<g><path style="opacity:1" fill="#f9fa00" d="M 432.5,217.5 C 433.833,218.167 433.833,218.167 432.5,217.5 Z"/></g>
<g><path style="opacity:1" fill="#d35100" d="M 435.5,218.5 C 434.475,218.103 434.308,217.437 435,216.5C 435.464,217.094 435.631,217.761 435.5,218.5 Z"/></g>
<g><path style="opacity:1" fill="#c5894a" d="M 698.5,218.5 C 698.897,217.475 699.563,217.308 700.5,218C 699.906,218.464 699.239,218.631 698.5,218.5 Z"/></g>
<g><path style="opacity:1" fill="#ba7d3d" d="M 432.5,218.5 C 432.5,218.833 432.5,219.167 432.5,219.5C 431.83,219.019 431.83,218.685 432.5,218.5 Z"/></g>
<g><path style="opacity:1" fill="#956431" d="M 702.5,218.5 C 703.833,219.167 703.833,219.167 702.5,218.5 Z"/></g>
<g><path style="opacity:1" fill="#f9fa00" d="M 424.5,220.5 C 423.833,219.167 423.833,219.167 424.5,220.5 Z"/></g>
<g><path style="opacity:1" fill="#f9e764" d="M 551.5,218.5 C 564.331,219.364 577.331,220.031 590.5,220.5C 593.686,220.498 596.686,220.165 599.5,219.5C 602.833,219.5 606.167,219.5 609.5,219.5C 609.842,220.338 610.508,220.672 611.5,220.5C 620.529,221.254 629.529,222.254 638.5,223.5C 663.83,228.083 688.83,234.416 713.5,242.5C 719.864,245.737 726.53,248.403 733.5,250.5C 736.088,252.592 739.088,253.925 742.5,254.5C 751.516,259.675 760.849,264.341 770.5,268.5C 788.44,279.142 806.107,290.309 823.5,302C 832.94,309.042 841.94,316.542 850.5,324.5C 853.761,329.303 857.928,333.97 863,338.5C 873.329,353.159 880.995,369.159 886,386.5C 890.045,400.391 893.712,414.391 897,428.5C 897.464,427.906 897.631,427.239 897.5,426.5C 899.631,435.418 901.298,444.418 902.5,453.5C 902.998,458.152 903.331,462.819 903.5,467.5C 905.666,490.132 905.999,512.799 904.5,535.5C 903.62,546.179 902.62,556.845 901.5,567.5C 900.662,567.842 900.328,568.508 900.5,569.5C 899.619,573.454 898.952,577.454 898.5,581.5C 897.596,582.209 897.263,583.209 897.5,584.5C 895.229,592.979 892.562,601.312 889.5,609.5C 885.563,617.001 880.396,623.668 874,629.5C 871.866,632.492 872.032,635.158 874.5,637.5C 874.916,639.752 876.249,641.252 878.5,642C 882.796,642.076 886.796,642.909 890.5,644.5C 892.722,646.765 895.722,648.932 899.5,651C 912.653,664.151 923.486,678.984 932,695.5C 947.549,725.893 961.716,756.226 974.5,786.5C 979.342,797.362 983.009,808.695 985.5,820.5C 984.668,843.33 984.168,866.33 984,889.5C 982.805,903.927 977.971,916.927 969.5,928.5C 969.624,929.107 969.957,929.44 970.5,929.5C 967.871,932.631 965.038,935.631 962,938.5C 961.768,937.263 961.268,936.263 960.5,935.5C 959.664,926.813 958.664,918.146 957.5,909.5C 953.03,878.132 946.03,847.465 936.5,817.5C 935.602,812.466 933.935,807.799 931.5,803.5C 929.795,796.371 927.128,789.704 923.5,783.5C 921.238,776.309 917.904,769.642 913.5,763.5C 909.73,760.62 906.396,760.954 903.5,764.5C 900.923,765.972 899.59,768.305 899.5,771.5C 899.886,773.932 900.553,776.266 901.5,778.5C 900.957,778.56 900.624,778.893 900.5,779.5C 907.943,794.663 914.11,810.33 919,826.5C 924.637,847.07 929.804,867.07 934.5,886.5C 938.148,903.053 941.148,919.72 943.5,936.5C 946.059,959.087 947.059,981.753 946.5,1004.5C 945.535,1010.66 944.868,1016.99 944.5,1023.5C 683.5,1023.5 422.5,1023.5 161.5,1023.5C 161.672,1022.51 161.338,1021.84 160.5,1021.5C 159.9,1011.83 159.233,1002.16 158.5,992.5C 158.313,954.344 161.647,916.344 168.5,878.5C 168.48,877.274 168.147,876.274 167.5,875.5C 168.487,870.883 169.154,866.216 169.5,861.5C 171.593,856.122 172.927,850.455 173.5,844.5C 174.167,844.5 174.5,844.167 174.5,843.5C 174.263,842.209 174.596,841.209 175.5,840.5C 175.369,841.239 175.536,841.906 176,842.5C 183.818,807.573 196.651,774.573 214.5,743.5C 214.376,742.893 214.043,742.56 213.5,742.5C 213.759,732.967 209.426,729.801 200.5,733C 192.149,743.867 185.482,755.7 180.5,768.5C 178.043,771.751 176.376,775.418 175.5,779.5C 171.248,787.596 167.581,795.929 164.5,804.5C 156.206,802.291 148.206,799.291 140.5,795.5C 135.5,791.167 130.833,786.5 126.5,781.5C 123.326,775.483 120.992,769.15 119.5,762.5C 118.35,757.071 117.35,751.737 116.5,746.5C 116.31,735.143 116.644,723.81 117.5,712.5C 122.117,688.763 133.784,669.263 152.5,654C 161.224,647.644 170.224,641.811 179.5,636.5C 184.984,634.593 189.984,631.927 194.5,628.5C 211.448,620.695 228.448,612.862 245.5,605C 248.393,603.851 251.393,603.351 254.5,603.5C 259.015,605.279 263.682,605.779 268.5,605C 269.056,604.617 269.389,604.117 269.5,603.5C 272.168,602.543 273.668,600.543 274,597.5C 274.755,594.697 274.422,592.03 273,589.5C 265.079,584.123 257.246,578.623 249.5,573C 238.729,563.958 232.896,552.458 232,538.5C 231.5,525.838 231.333,513.171 231.5,500.5C 231.624,489.132 232.291,477.798 233.5,466.5C 235.627,452.19 238.294,437.857 241.5,423.5C 243.61,419.498 244.943,415.165 245.5,410.5C 255.341,384.819 267.841,360.486 283,337.5C 286.32,332.353 290.153,327.686 294.5,323.5C 313.318,301.841 334.985,283.675 359.5,269C 367.743,264.955 375.409,261.121 382.5,257.5C 393.006,252.776 403.673,248.442 414.5,244.5C 423.175,242.607 431.508,239.941 439.5,236.5C 449.215,234.373 458.881,232.04 468.5,229.5C 469.492,229.672 470.158,229.338 470.5,228.5C 484.956,225.807 499.29,223.14 513.5,220.5C 526.146,219.476 538.813,218.809 551.5,218.5 Z"/></g>
<g><path style="opacity:1" fill="#f90000" d="M 424.5,220.5 C 425.167,220.5 425.5,220.833 425.5,221.5C 425.167,221.167 424.833,220.833 424.5,220.5 Z"/></g>
<g><path style="opacity:1" fill="#5f2d08" d="M 611.5,220.5 C 621.097,219.9 630.763,220.734 640.5,223C 639.906,223.464 639.239,223.631 638.5,223.5C 629.529,222.254 620.529,221.254 611.5,220.5 Z"/></g>
<g><path style="opacity:1" fill="#f9fa00" d="M 707.5,220.5 C 708.833,221.167 708.833,221.167 707.5,220.5 Z"/></g>
<g><path style="opacity:1" fill="#7c7d00" d="M 416.5,224.5 C 415.833,223.167 415.833,223.167 416.5,224.5 Z"/></g>
<g><path style="opacity:1" fill="#e84512" d="M 720.5,224.5 C 720.5,224.833 720.5,225.167 720.5,225.5C 719.833,225.5 719.167,225.5 718.5,225.5C 718.082,224.778 717.416,224.278 716.5,224C 717.928,223.421 719.262,223.588 720.5,224.5 Z"/></g>
<g><path style="opacity:1" fill="#f90000" d="M 720.5,223.5 C 721.833,224.167 721.833,224.167 720.5,223.5 Z"/></g>
<g><path style="opacity:1" fill="#f90000" d="M 406.5,224.5 C 407.833,225.167 407.833,225.167 406.5,224.5 Z"/></g>
<g><path style="opacity:1" fill="#f9fa00" d="M 411.5,224.5 C 412.833,225.167 412.833,225.167 411.5,224.5 Z"/></g>
<g><path style="opacity:1" fill="#7c7d00" d="M 722.5,224.5 C 723.833,225.167 723.833,225.167 722.5,224.5 Z"/></g>
<g><path style="opacity:1" fill="#7c7d3d" d="M 725.5,224.5 C 726.833,225.167 726.833,225.167 725.5,224.5 Z"/></g>
<g><path style="opacity:1" fill="#f90000" d="M 400.5,225.5 C 401.833,226.167 401.833,226.167 400.5,225.5 Z"/></g>
<g><path style="opacity:1" fill="#a75150" d="M 408.5,225.5 C 409.833,226.167 409.833,226.167 408.5,225.5 Z"/></g>
<g><path style="opacity:1" fill="#c6670b" d="M 723.5,227.5 C 724.251,226.427 725.251,226.26 726.5,227C 725.552,227.483 724.552,227.649 723.5,227.5 Z"/></g>
<g><path style="opacity:1" fill="#89661e" d="M 447.5,216.5 C 448.209,215.596 449.209,215.263 450.5,215.5C 453.641,216.321 456.975,216.821 460.5,217C 459.572,217.388 458.905,218.055 458.5,219C 458.944,220.762 459.444,220.595 460,218.5C 462.771,218.854 465.604,219.021 468.5,219C 467.044,219.423 466.544,220.256 467,221.5C 468.912,220.308 470.912,219.308 473,218.5C 474.833,219.298 476.666,220.298 478.5,221.5C 479.167,221.167 479.833,220.833 480.5,220.5C 479.41,219.391 479.41,218.391 480.5,217.5C 481.216,218.311 482.05,218.978 483,219.5C 485.028,218.032 486.862,218.199 488.5,220C 487.5,220.833 486.5,221.667 485.5,222.5C 485.709,223.086 486.043,223.586 486.5,224C 480.78,225.21 475.113,226.543 469.5,228C 469.728,228.399 470.062,228.565 470.5,228.5C 470.158,229.338 469.492,229.672 468.5,229.5C 468.083,228.876 467.416,228.543 466.5,228.5C 457.245,230.725 448.245,233.392 439.5,236.5C 431.508,239.941 423.175,242.607 414.5,244.5C 411.502,245.342 408.502,245.842 405.5,246C 408.058,244.62 408.058,243.12 405.5,241.5C 406.025,240.808 406.692,240.308 407.5,240C 406.019,239.02 404.685,237.853 403.5,236.5C 403.251,237.582 403.085,238.915 403,240.5C 401.846,239.257 400.512,238.257 399,237.5C 398.301,235.926 398.635,234.593 400,233.5C 402.237,234.056 404.237,235.056 406,236.5C 406.92,236.07 407.753,235.736 408.5,235.5C 405.869,233.995 406.203,233.329 409.5,233.5C 409.286,231.856 409.62,230.356 410.5,229C 415.578,227.711 420.578,226.211 425.5,224.5C 428.108,226.978 430.775,226.978 433.5,224.5C 434.086,224.709 434.586,225.043 435,225.5C 435.908,223.561 437.408,222.561 439.5,222.5C 439.5,221.5 439.5,220.5 439.5,219.5C 443.131,219.84 446.464,219.006 449.5,217C 448.906,216.536 448.239,216.369 447.5,216.5 Z"/></g>
<g><path style="opacity:1" fill="#a67d2e" d="M 393.5,232.5 C 392.761,232.631 392.094,232.464 391.5,232C 392.437,231.308 393.103,231.475 393.5,232.5 Z"/></g>
<g><path style="opacity:1" fill="#f90000" d="M 736.5,231.5 C 737.833,232.167 737.833,232.167 736.5,231.5 Z"/></g>
<g><path style="opacity:1" fill="#f90000" d="M 383.5,232.5 C 384.833,233.167 384.833,233.167 383.5,232.5 Z"/></g>
<g><path style="opacity:1" fill="#f90000" d="M 390.5,233.5 C 389.833,232.167 389.833,232.167 390.5,233.5 Z"/></g>
<g><path style="opacity:1" fill="#aa6c00" d="M 738.5,233.5 C 738.897,232.475 739.563,232.308 740.5,233C 739.906,233.464 739.239,233.631 738.5,233.5 Z"/></g>
<g><path style="opacity:1" fill="#612f06" d="M 468.5,229.5 C 458.881,232.04 449.215,234.373 439.5,236.5C 448.245,233.392 457.245,230.725 466.5,228.5C 467.416,228.543 468.083,228.876 468.5,229.5 Z"/></g>
<g><path style="opacity:1" fill="#7c7d00" d="M 741.5,233.5 C 742.833,234.167 742.833,234.167 741.5,233.5 Z"/></g>
<g><path style="opacity:1" fill="#f9fa00" d="M 386.5,235.5 C 385.833,234.167 385.833,234.167 386.5,235.5 Z"/></g>
<g><path style="opacity:1" fill="#f90000" d="M 750.5,237.5 C 751.833,238.167 751.833,238.167 750.5,237.5 Z"/></g>
<g><path style="opacity:1" fill="#a75150" d="M 372.5,239.5 C 373.833,240.167 373.833,240.167 372.5,239.5 Z"/></g>
<g><path style="opacity:1" fill="#a75150" d="M 367.5,241.5 C 368.833,242.167 368.833,242.167 367.5,241.5 Z"/></g>
<g><path style="opacity:1" fill="#f90000" d="M 758.5,241.5 C 759.833,242.167 759.833,242.167 758.5,241.5 Z"/></g>
<g><path style="opacity:1" fill="#7c7d00" d="M 762.5,243.5 C 761.833,242.167 761.833,242.167 762.5,243.5 Z"/></g>
<g><path style="opacity:1" fill="#f90000" d="M 762.5,243.5 C 763.833,244.167 763.833,244.167 762.5,243.5 Z"/></g>
<g><path style="opacity:1" fill="#f90000" d="M 766.5,243.5 C 767.833,244.167 767.833,244.167 766.5,243.5 Z"/></g>
<g><path style="opacity:1" fill="#000000" d="M 131.5,245.5 C 132.833,246.167 132.833,246.167 131.5,245.5 Z"/></g>
<g><path style="opacity:1" fill="#5d2b06" d="M 713.5,242.5 C 720.629,244.205 727.296,246.872 733.5,250.5C 726.53,248.403 719.864,245.737 713.5,242.5 Z"/></g>
<g><path style="opacity:1" fill="#f90000" d="M 766.5,245.5 C 767.833,246.167 767.833,246.167 766.5,245.5 Z"/></g>
<g><path style="opacity:1" fill="#7c7d00" d="M 344.5,248.5 C 345.833,249.167 345.833,249.167 344.5,248.5 Z"/></g>
<g><path style="opacity:1" fill="#a75150" d="M 774.5,249.5 C 775.833,250.167 775.833,250.167 774.5,249.5 Z"/></g>
<g><path style="opacity:1" fill="#f90000" d="M 782.5,249.5 C 783.833,250.167 783.833,250.167 782.5,249.5 Z"/></g>
<g><path style="opacity:1" fill="#f9fa00" d="M 779.5,252.5 C 780.833,253.167 780.833,253.167 779.5,252.5 Z"/></g>
<g><path style="opacity:1" fill="#a77d24" d="M 784.5,255.5 C 785.833,256.167 785.833,256.167 784.5,255.5 Z"/></g>
<g><path style="opacity:1" fill="#633108" d="M 742.5,254.5 C 752.419,258.126 761.752,262.793 770.5,268.5C 760.849,264.341 751.516,259.675 742.5,254.5 Z"/></g>
<g><path style="opacity:1" fill="#d35100" d="M 786.5,257.5 C 786.897,256.475 787.563,256.308 788.5,257C 787.906,257.464 787.239,257.631 786.5,257.5 Z"/></g>
<g><path style="opacity:1" fill="#7c7d00" d="M 336.5,257.5 C 337.833,258.167 337.833,258.167 336.5,257.5 Z"/></g>
<g><path style="opacity:1" fill="#f90000" d="M 323.5,263.5 C 324.773,264.077 324.773,264.743 323.5,265.5C 322.537,265.03 322.537,264.363 323.5,263.5 Z"/></g>
<g><path style="opacity:1" fill="#7c7d00" d="M 800.5,264.5 C 801.833,265.167 801.833,265.167 800.5,264.5 Z"/></g>
<g><path style="opacity:1" fill="#f90000" d="M 803.5,265.5 C 804.167,264.167 804.833,264.167 805.5,265.5C 804.833,265.5 804.167,265.5 803.5,265.5 Z"/></g>
<g><path style="opacity:1" fill="#f90000" d="M 319.5,266.5 C 319.897,265.475 320.563,265.308 321.5,266C 320.906,266.464 320.239,266.631 319.5,266.5 Z"/></g>
<g><path style="opacity:1" fill="#7c7d00" d="M 803.5,265.5 C 803.5,265.833 803.5,266.167 803.5,266.5C 802.83,266.019 802.83,265.685 803.5,265.5 Z"/></g>
<g><path style="opacity:1" fill="#f90000" d="M 805.5,265.5 C 806.833,266.167 806.833,266.167 805.5,265.5 Z"/></g>
<g><path style="opacity:1" fill="#f90000" d="M 322.5,266.5 C 323.833,267.167 323.833,267.167 322.5,266.5 Z"/></g>
<g><path style="opacity:1" fill="#7c7d3d" d="M 803.5,266.5 C 804.833,267.167 804.833,267.167 803.5,266.5 Z"/></g>
<g><path style="opacity:1" fill="#a75150" d="M 806.5,268.5 C 807.833,269.167 807.833,269.167 806.5,268.5 Z"/></g>
<g><path style="opacity:1" fill="#f90000" d="M 311.5,271.5 C 312.833,272.167 312.833,272.167 311.5,271.5 Z"/></g>
<g><path style="opacity:1" fill="#f90000" d="M 313.5,271.5 C 314.833,272.167 314.833,272.167 313.5,271.5 Z"/></g>
<g><path style="opacity:1" fill="#7c7d00" d="M 811.5,271.5 C 812.833,272.167 812.833,272.167 811.5,271.5 Z"/></g>
<g><path style="opacity:1" fill="#f90000" d="M 814.5,272.5 C 815.833,273.167 815.833,273.167 814.5,272.5 Z"/></g>
<g><path style="opacity:1" fill="#f90000" d="M 818.5,273.5 C 819.833,274.167 819.833,274.167 818.5,273.5 Z"/></g>
<g><path style="opacity:1" fill="#f90000" d="M 816.5,274.5 C 817.833,275.167 817.833,275.167 816.5,274.5 Z"/></g>
<g><path style="opacity:1" fill="#f6f182" d="M 382.5,257.5 C 375.409,261.121 367.743,264.955 359.5,269C 334.985,283.675 313.318,301.841 294.5,323.5C 317.628,293.265 346.962,271.265 382.5,257.5 Z"/></g>
<g><path style="opacity:1" fill="#f9fa00" d="M 820.5,277.5 C 821.833,278.167 821.833,278.167 820.5,277.5 Z"/></g>
<g><path style="opacity:1" fill="#be660f" d="M 308.5,280.5 C 307.127,280.657 305.793,280.49 304.5,280C 306.066,279.235 307.399,279.402 308.5,280.5 Z"/></g>
<g><path style="opacity:1" fill="#e04300" d="M 823.5,280.5 C 824.779,279.285 825.779,279.618 826.5,281.5C 826.167,281.5 825.833,281.5 825.5,281.5C 825.167,281.5 824.833,281.5 824.5,281.5C 824.5,280.833 824.167,280.5 823.5,280.5 Z"/></g>
<g><path style="opacity:1" fill="#d35100" d="M 304.5,282.5 C 305.167,281.167 305.833,281.167 306.5,282.5C 305.833,282.5 305.167,282.5 304.5,282.5 Z"/></g>
<g><path style="opacity:1" fill="#f90000" d="M 826.5,282.5 C 826.5,282.167 826.5,281.833 826.5,281.5C 829.167,281.833 829.167,282.167 826.5,282.5 Z"/></g>
<g><path style="opacity:1" fill="#000000" d="M 86.5,282.5 C 87.8333,283.167 87.8333,283.167 86.5,282.5 Z"/></g>
<g><path style="opacity:1" fill="#a75150" d="M 304.5,282.5 C 303.833,283.167 303.833,283.167 304.5,282.5 Z"/></g>
<g><path style="opacity:1" fill="#f90000" d="M 299.5,285.5 C 300.833,286.167 300.833,286.167 299.5,285.5 Z"/></g>
<g><path style="opacity:1" fill="#f9fa00" d="M 299.5,288.5 C 298.833,287.167 298.833,287.167 299.5,288.5 Z"/></g>
<g><path style="opacity:1" fill="#7c7d00" d="M 838.5,289.5 C 839.833,290.167 839.833,290.167 838.5,289.5 Z"/></g>
<g><path style="opacity:1" fill="#7c7d00" d="M 290.5,295.5 C 291.833,296.167 291.833,296.167 290.5,295.5 Z"/></g>
<g><path style="opacity:1" fill="#f90000" d="M 850.5,295.5 C 851.833,296.167 851.833,296.167 850.5,295.5 Z"/></g>
<g><path style="opacity:1" fill="#f90000" d="M 850.5,296.5 C 849.833,297.167 849.833,297.167 850.5,296.5 Z"/></g>
<g><path style="opacity:1" fill="#df3324" d="M 849.5,299.5 C 850.167,298.167 850.833,298.167 851.5,299.5C 850.833,299.5 850.167,299.5 849.5,299.5 Z"/></g>
<g><path style="opacity:1" fill="#f90000" d="M 851.5,299.5 C 852.833,300.167 852.833,300.167 851.5,299.5 Z"/></g>
<g><path style="opacity:1" fill="#7c7d00" d="M 284.5,304.5 C 283.833,303.167 283.833,303.167 284.5,304.5 Z"/></g>
<g><path style="opacity:1" fill="#7c7d00" d="M 283.5,304.5 C 282.833,305.167 282.833,305.167 283.5,304.5 Z"/></g>
<g><path style="opacity:1" fill="#7c7d00" d="M 280.5,306.5 C 279.833,305.167 279.833,305.167 280.5,306.5 Z"/></g>
<g><path style="opacity:1" fill="#f90000" d="M 859.5,306.5 C 860.833,307.167 860.833,307.167 859.5,306.5 Z"/></g>
<g><path style="opacity:1" fill="#673a0e" d="M 477.5,303.5 C 483.842,303.334 490.175,303.5 496.5,304C 501.157,304.412 505.491,305.579 509.5,307.5C 507.304,307.41 505.137,307.077 503,306.5C 501.635,306.844 500.468,307.511 499.5,308.5C 499.264,307.753 498.93,306.92 498.5,306C 497.5,305.667 496.5,305.333 495.5,305C 489.319,304.828 483.319,304.328 477.5,303.5 Z"/></g>
<g><path style="opacity:1" fill="#a75150" d="M 280.5,309.5 C 279.833,308.167 279.833,308.167 280.5,309.5 Z"/></g>
<g><path style="opacity:1" fill="#7c7d00" d="M 276.5,311.5 C 277.833,312.167 277.833,312.167 276.5,311.5 Z"/></g>
<g><path style="opacity:1" fill="#f90000" d="M 868.5,312.5 C 869.833,313.167 869.833,313.167 868.5,312.5 Z"/></g>
<g><path style="opacity:1" fill="#f90000" d="M 272.5,313.5 C 273.833,314.167 273.833,314.167 272.5,313.5 Z"/></g>
<g><path style="opacity:1" fill="#f90000" d="M 274.5,313.5 C 275.833,314.167 275.833,314.167 274.5,313.5 Z"/></g>
<g><path style="opacity:1" fill="#6d3e0a" d="M 649.5,317.5 C 639.99,318.242 630.323,318.909 620.5,319.5C 619.274,319.48 618.274,319.147 617.5,318.5C 628.095,316.255 638.762,315.921 649.5,317.5 Z"/></g>
<g><path style="opacity:1" fill="#a75150" d="M 875.5,320.5 C 874.833,319.167 874.833,319.167 875.5,320.5 Z"/></g>
<g><path style="opacity:1" fill="#d35100" d="M 875.5,320.5 C 876.239,320.369 876.906,320.536 877.5,321C 876.563,321.692 875.897,321.525 875.5,320.5 Z"/></g>
<g><path style="opacity:1" fill="#f90000" d="M 263.5,324.5 C 264.833,325.167 264.833,325.167 263.5,324.5 Z"/></g>
<g><path style="opacity:1" fill="#f90000" d="M 268.5,325.5 C 267.833,324.167 267.833,324.167 268.5,325.5 Z"/></g>
<g><path style="opacity:1" fill="#a75150" d="M 878.5,325.5 C 879.833,326.167 879.833,326.167 878.5,325.5 Z"/></g>
<g><path style="opacity:1" fill="#7c7d00" d="M 266.5,327.5 C 265.833,326.167 265.833,326.167 266.5,327.5 Z"/></g>
<g><path style="opacity:1" fill="#a7a850" d="M 263.5,329.5 C 264.833,330.167 264.833,330.167 263.5,329.5 Z"/></g>
<g><path style="opacity:1" fill="#7d7c2f" d="M 258.5,336.5 C 258.897,335.475 259.563,335.308 260.5,336C 259.906,336.464 259.239,336.631 258.5,336.5 Z"/></g>
<g><path style="opacity:1" fill="#7c7d00" d="M 886.5,335.5 C 887.833,336.167 887.833,336.167 886.5,335.5 Z"/></g>
<g><path style="opacity:1" fill="#f90000" d="M 256.5,336.5 C 257.833,337.167 257.833,337.167 256.5,336.5 Z"/></g>
<g><path style="opacity:1" fill="#f90000" d="M 256.5,337.5 C 256.5,337.833 256.5,338.167 256.5,338.5C 255.83,338.019 255.83,337.685 256.5,337.5 Z"/></g>
<g><path style="opacity:1" fill="#f90000" d="M 259.5,338.5 C 258.833,337.167 258.833,337.167 259.5,338.5 Z"/></g>
<g><path style="opacity:1" fill="#c4453b" d="M 256.5,338.5 C 257.525,338.897 257.692,339.563 257,340.5C 256.536,339.906 256.369,339.239 256.5,338.5 Z"/></g>
<g><path style="opacity:1" fill="#f90000" d="M 890.5,342.5 C 891.833,343.167 891.833,343.167 890.5,342.5 Z"/></g>
<g><path style="opacity:1" fill="#7c7d00" d="M 891.5,344.5 C 892.833,345.167 892.833,345.167 891.5,344.5 Z"/></g>
<g><path style="opacity:1" fill="#f90000" d="M 251.5,347.5 C 252.525,347.897 252.692,348.563 252,349.5C 251.536,348.906 251.369,348.239 251.5,347.5 Z"/></g>
<g><path style="opacity:1" fill="#7c7d00" d="M 894.5,347.5 C 895.525,347.897 895.692,348.563 895,349.5C 894.536,348.906 894.369,348.239 894.5,347.5 Z"/></g>
<g><path style="opacity:1" fill="#000000" d="M 1003.5,349.5 C 1004.83,350.167 1004.83,350.167 1003.5,349.5 Z"/></g>
<g><path style="opacity:1" fill="#7c7d00" d="M 894.5,350.5 C 895.833,351.167 895.833,351.167 894.5,350.5 Z"/></g>
<g><path style="opacity:1" fill="#dd4700" d="M 248.5,352.5 C 249.623,351.243 250.289,351.576 250.5,353.5C 250.167,353.5 249.833,353.5 249.5,353.5C 249.5,352.833 249.167,352.5 248.5,352.5 Z"/></g>
<g><path style="opacity:1" fill="#a76033" d="M 248.5,352.5 C 249.167,352.5 249.5,352.833 249.5,353.5C 249.5,354.167 249.5,354.833 249.5,355.5C 248.883,355.611 248.383,355.944 248,356.5C 247.235,354.934 247.402,353.601 248.5,352.5 Z"/></g>
<g><path style="opacity:1" fill="#562706" d="M 411.5,353.5 C 409.919,359.656 407.919,364.989 405.5,369.5C 406.536,363.715 408.536,358.382 411.5,353.5 Z"/></g>
<g><path style="opacity:1" fill="#f90000" d="M 245.5,359.5 C 246.833,360.167 246.833,360.167 245.5,359.5 Z"/></g>
<g><path style="opacity:1" fill="#cfbe20" d="M 900.5,363.5 C 900.167,363.5 899.833,363.5 899.5,363.5C 899.672,362.508 899.338,361.842 898.5,361.5C 898.369,360.761 898.536,360.094 899,359.5C 900.188,360.563 900.688,361.897 900.5,363.5 Z"/></g>
<g><path style="opacity:1" fill="#f90000" d="M 243.5,362.5 C 244.833,363.167 244.833,363.167 243.5,362.5 Z"/></g>
<g><path style="opacity:1" fill="#f90000" d="M 239.5,364.5 C 240.833,365.167 240.833,365.167 239.5,364.5 Z"/></g>
<g><path style="opacity:1" fill="#7c7d00" d="M 241.5,367.5 C 242.833,368.167 242.833,368.167 241.5,367.5 Z"/></g>
<g><path style="opacity:1" fill="#ba7d3d" d="M 902.5,369.5 C 903.833,370.167 903.833,370.167 902.5,369.5 Z"/></g>
<g><path style="opacity:1" fill="#f90000" d="M 237.5,375.5 C 238.833,376.167 238.833,376.167 237.5,375.5 Z"/></g>
<g><path style="opacity:1" fill="#f90000" d="M 233.5,378.5 C 234.833,379.167 234.833,379.167 233.5,378.5 Z"/></g>
<g><path style="opacity:1" fill="#c4453b" d="M 237.5,379.5 C 236.761,379.631 236.094,379.464 235.5,379C 236.437,378.308 237.103,378.475 237.5,379.5 Z"/></g>
<g><path style="opacity:1" fill="#f90000" d="M 232.5,380.5 C 233.833,381.167 233.833,381.167 232.5,380.5 Z"/></g>
<g><path style="opacity:1" fill="#a4a400" d="M 235.5,384.5 C 234.761,384.631 234.094,384.464 233.5,384C 234.437,383.308 235.103,383.475 235.5,384.5 Z"/></g>
<g><path style="opacity:1" fill="#7c7d00" d="M 907.5,383.5 C 908.833,384.167 908.833,384.167 907.5,383.5 Z"/></g>
<g><path style="opacity:1" fill="#f90000" d="M 231.5,384.5 C 232.833,385.167 232.833,385.167 231.5,384.5 Z"/></g>
<g><path style="opacity:1" fill="#542206" d="M 717.5,383.5 C 719.416,387.163 720.416,391.163 720.5,395.5C 718.834,392.359 717.834,388.359 717.5,383.5 Z"/></g>
<g><path style="opacity:1" fill="#7c7d00" d="M 232.5,387.5 C 233.833,388.167 233.833,388.167 232.5,387.5 Z"/></g>
<g><path style="opacity:1" fill="#f9fa00" d="M 908.5,387.5 C 909.833,388.167 909.833,388.167 908.5,387.5 Z"/></g>
<g><path style="opacity:1" fill="#7c7d00" d="M 909.5,389.5 C 910.833,390.167 910.833,390.167 909.5,389.5 Z"/></g>
<g><path style="opacity:1" fill="#f9fa00" d="M 909.5,391.5 C 910.833,392.167 910.833,392.167 909.5,391.5 Z"/></g>
<g><path style="opacity:1" fill="#f3eb7b" d="M 850.5,324.5 C 863.4,334.948 872.9,347.948 879,363.5C 887.497,383.824 893.664,404.824 897.5,426.5C 897.631,427.239 897.464,427.906 897,428.5C 893.712,414.391 890.045,400.391 886,386.5C 880.995,369.159 873.329,353.159 863,338.5C 857.928,333.97 853.761,329.303 850.5,324.5 Z"/></g>
<g><path style="opacity:1" fill="#7c7d00" d="M 910.5,393.5 C 911.833,394.167 911.833,394.167 910.5,393.5 Z"/></g>
<g><path style="opacity:1" fill="#a7a850" d="M 910.5,395.5 C 911.833,396.167 911.833,396.167 910.5,395.5 Z"/></g>
<g><path style="opacity:1" fill="#f90000" d="M 223.5,401.5 C 224.833,402.167 224.833,402.167 223.5,401.5 Z"/></g>
<g><path style="opacity:1" fill="#bc9220" d="M 226.5,408.5 C 225.207,409.842 224.374,411.509 224,413.5C 223.333,411.833 223.333,410.167 224,408.5C 224.977,407.226 225.811,407.226 226.5,408.5 Z"/></g>
<g><path style="opacity:1" fill="#ba7d3d" d="M 224.5,415.5 C 223.833,414.167 223.833,414.167 224.5,415.5 Z"/></g>
<g><path style="opacity:1" fill="#592805" d="M 245.5,410.5 C 244.943,415.165 243.61,419.498 241.5,423.5C 242.057,418.835 243.39,414.502 245.5,410.5 Z"/></g>
<g><path style="opacity:1" fill="#f90000" d="M 1019.5,421.5 C 1020.83,422.167 1020.83,422.167 1019.5,421.5 Z"/></g>
<g><path style="opacity:1" fill="#f9fa00" d="M 220.5,423.5 C 221.833,424.167 221.833,424.167 220.5,423.5 Z"/></g>
<g><path style="opacity:1" fill="#f9fa00" d="M 917.5,427.5 C 917.343,426.127 917.51,424.793 918,423.5C 918.765,425.066 918.598,426.399 917.5,427.5 Z"/></g>
<g><path style="opacity:1" fill="#f9fa00" d="M 219.5,427.5 C 220.833,428.167 220.833,428.167 219.5,427.5 Z"/></g>
<g><path style="opacity:1" fill="#f9fa00" d="M 218.5,432.5 C 219.833,433.167 219.833,433.167 218.5,432.5 Z"/></g>
<g><path style="opacity:1" fill="#a4a400" d="M 215.5,433.5 C 216.525,433.897 216.692,434.563 216,435.5C 215.536,434.906 215.369,434.239 215.5,433.5 Z"/></g>
<g><path style="opacity:1" fill="#a38f1f" d="M 918.5,437.5 C 917.549,436.081 917.216,434.415 917.5,432.5C 918.29,431.391 918.79,430.058 919,428.5C 919.495,431.531 919.329,434.531 918.5,437.5 Z"/></g>
<g><path style="opacity:1" fill="#93931c" d="M 218.5,438.5 C 217.402,437.399 217.235,436.066 218,434.5C 218.49,435.793 218.657,437.127 218.5,438.5 Z"/></g>
<g><path style="opacity:1" fill="#000000" d="M 83.5,445.5 C 84.8333,446.167 84.8333,446.167 83.5,445.5 Z"/></g>
<g><path style="opacity:1" fill="#f9fa00" d="M 215.5,446.5 C 216.833,447.167 216.833,447.167 215.5,446.5 Z"/></g>
<g><path style="opacity:1" fill="#5c2d05" d="M 445.5,454.5 C 450.382,455.792 455.048,457.459 459.5,459.5C 454.331,459.001 449.664,457.334 445.5,454.5 Z"/></g>
<g><path style="opacity:1" fill="#4f1f04" d="M 903.5,467.5 C 903.331,462.819 902.998,458.152 902.5,453.5C 902.351,452.448 902.517,451.448 903,450.5C 904.393,456.305 904.559,461.971 903.5,467.5 Z"/></g>
<g><path style="opacity:1" fill="#f90000" d="M 212.5,464.5 C 213.833,465.167 213.833,465.167 212.5,464.5 Z"/></g>
<g><path style="opacity:1" fill="#89661d" d="M 477.5,303.5 C 483.319,304.328 489.319,304.828 495.5,305C 496.5,305.333 497.5,305.667 498.5,306C 498.93,306.92 499.264,307.753 499.5,308.5C 500.468,307.511 501.635,306.844 503,306.5C 505.137,307.077 507.304,307.41 509.5,307.5C 536.815,315.315 554.315,332.982 562,360.5C 573.733,337.701 592.233,323.701 617.5,318.5C 618.274,319.147 619.274,319.48 620.5,319.5C 630.323,318.909 639.99,318.242 649.5,317.5C 685.595,325.594 708.261,347.594 717.5,383.5C 717.834,388.359 718.834,392.359 720.5,395.5C 723.903,447.965 699.236,477.465 646.5,484C 652.741,489.655 657.075,496.489 659.5,504.5C 659.362,513.035 657.696,521.369 654.5,529.5C 649.156,538.684 642.156,546.518 633.5,553C 619.582,562.576 604.582,569.742 588.5,574.5C 555.758,582.031 522.758,583.365 489.5,578.5C 457.399,571.399 438.066,551.733 431.5,519.5C 432.305,513.998 432.971,508.331 433.5,502.5C 433.48,501.274 433.147,500.274 432.5,499.5C 432.328,498.508 432.662,497.842 433.5,497.5C 435.862,492.045 438.529,486.045 441.5,479.5C 446.424,471.907 452.424,465.24 459.5,459.5C 455.048,457.459 450.382,455.792 445.5,454.5C 420.224,444.008 406.057,425.008 403,397.5C 401.883,387.848 402.717,378.514 405.5,369.5C 407.919,364.989 409.919,359.656 411.5,353.5C 425.15,325.854 447.15,309.187 477.5,303.5 Z"/></g>
<g><path style="opacity:1" fill="#552406" d="M 608.5,460.5 C 613.097,462.032 617.764,463.365 622.5,464.5C 617.466,465.052 612.799,463.718 608.5,460.5 Z"/></g>
<g><path style="opacity:1" fill="#f29857" d="M 617.5,487.5 C 621.262,491.083 625.262,494.583 629.5,498C 572.829,498.204 516.162,497.704 459.5,496.5C 459.957,493.594 460.957,490.928 462.5,488.5C 465.601,483.564 469.601,479.397 474.5,476C 499.469,460.808 526.469,455.808 555.5,461C 578.281,465.232 598.947,474.066 617.5,487.5 Z"/></g>
<g><path style="opacity:1" fill="#5f2a03" d="M 691.5,445.5 C 689.5,449.5 686.5,452.5 682.5,454.5C 685.167,451.167 688.167,448.167 691.5,445.5 Z"/></g>
<g><path style="opacity:1" fill="#633610" d="M 502.5,444.5 C 500.426,446.106 497.426,446.94 493.5,447C 486.654,447.821 479.987,447.654 473.5,446.5C 483.221,446.541 492.888,445.874 502.5,444.5 Z"/></g>
<g><path style="opacity:1" fill="#552306" d="M 456.5,442.5 C 461.468,443.659 466.468,444.659 471.5,445.5C 470.054,446.613 468.387,446.78 466.5,446C 462.837,445.428 459.503,444.262 456.5,442.5 Z"/></g>
<g><path style="opacity:1" fill="#5f2c06" d="M 520.5,437.5 C 515.8,441.727 510.467,443.727 504.5,443.5C 509.911,441.697 515.244,439.697 520.5,437.5 Z"/></g>
<g><path style="opacity:1" fill="#5a2b07" d="M 560.5,423.5 C 562.736,427.645 564.736,431.978 566.5,436.5C 563.18,432.856 561.18,428.522 560.5,423.5 Z"/></g>
<g><path style="opacity:1" fill="#602e03" d="M 536.5,423.5 C 534.167,427.833 530.833,431.167 526.5,433.5C 529.5,429.833 532.833,426.5 536.5,423.5 Z"/></g>
<g><path style="opacity:1" fill="#f8e96c" d="M 560.5,423.5 C 561.18,428.522 563.18,432.856 566.5,436.5C 567.557,438.941 568.89,441.275 570.5,443.5C 560.666,442.689 550.666,441.522 540.5,440C 547.77,433.281 553.436,425.448 557.5,416.5C 558.359,419 559.359,421.333 560.5,423.5 Z"/></g>
<g><path style="opacity:1" fill="#633307" d="M 700.5,383.5 C 705.351,395.362 706.518,407.695 704,420.5C 703.562,424.19 702.395,426.856 700.5,428.5C 704.499,413.505 704.499,398.505 700.5,383.5 Z"/></g>
<g><path style="opacity:1" fill="#5a2b08" d="M 539.5,419.5 C 546.792,405.757 549.792,391.09 548.5,375.5C 549.274,377.249 549.607,380.415 549.5,385C 550.077,397.756 546.744,409.256 539.5,419.5 Z"/></g>
<g><path style="opacity:1" fill="#4d1a06" d="M 577.5,367.5 C 576.301,371.099 575.301,374.765 574.5,378.5C 573.609,374.479 574.609,370.812 577.5,367.5 Z"/></g>
<g><path style="opacity:1" fill="#562508" d="M 427.5,357.5 C 420.732,371.11 418.398,385.443 420.5,400.5C 420.631,401.239 420.464,401.906 420,402.5C 417.476,389.888 418.476,377.554 423,365.5C 423.86,362.367 425.36,359.7 427.5,357.5 Z"/></g>
<g><path style="opacity:1" fill="#5b290b" d="M 691.5,364.5 C 695.818,370.138 698.818,376.471 700.5,383.5C 697.263,377.357 694.263,371.024 691.5,364.5 Z"/></g>
<g><path style="opacity:1" fill="#5d2a0b" d="M 609.5,338.5 C 604.408,340.881 599.408,343.548 594.5,346.5C 594.062,346.565 593.728,346.399 593.5,346C 598.202,342.149 603.535,339.649 609.5,338.5 Z"/></g>
<g><path style="opacity:1" fill="#f9f9f8" d="M 691.5,364.5 C 694.263,371.024 697.263,377.357 700.5,383.5C 704.499,398.505 704.499,413.505 700.5,428.5C 697.978,434.372 694.978,440.039 691.5,445.5C 688.167,448.167 685.167,451.167 682.5,454.5C 663.994,466.251 643.994,469.584 622.5,464.5C 617.764,463.365 613.097,462.032 608.5,460.5C 588.883,449.978 577.049,433.644 573,411.5C 572.333,402.167 572.333,392.833 573,383.5C 573.352,381.753 573.852,380.086 574.5,378.5C 575.301,374.765 576.301,371.099 577.5,367.5C 581.979,359.545 587.645,352.545 594.5,346.5C 599.408,343.548 604.408,340.881 609.5,338.5C 612.518,338.665 615.518,338.498 618.5,338C 638.496,331.274 657.163,333.94 674.5,346C 680.769,351.763 686.436,357.929 691.5,364.5 Z"/></g>
<g><path style="opacity:1" fill="#010101" d="M 604.5,372.5 C 619.251,370.957 630.085,376.623 637,389.5C 640.542,409.055 632.375,420.055 612.5,422.5C 593.153,420.334 584.32,409.668 586,390.5C 589.416,381.583 595.583,375.583 604.5,372.5 Z"/></g>
<g><path style="opacity:1" fill="#6b3b10" d="M 475.5,321.5 C 467.773,323.186 460.44,325.852 453.5,329.5C 454.574,328.115 455.907,326.949 457.5,326C 454.833,325.333 454.833,324.667 457.5,324C 456.346,323.086 456.513,322.253 458,321.5C 458.347,323.18 459.347,324.18 461,324.5C 465.736,321.837 470.569,320.837 475.5,321.5 Z"/></g>
<g><path style="opacity:1" fill="#f9f9f8" d="M 476.5,320.5 C 485.195,320.327 493.862,320.66 502.5,321.5C 528.963,329.967 544.296,347.967 548.5,375.5C 549.792,391.09 546.792,405.757 539.5,419.5C 537.738,420.262 536.738,421.596 536.5,423.5C 532.833,426.5 529.5,429.833 526.5,433.5C 524.147,434.34 522.147,435.674 520.5,437.5C 515.244,439.697 509.911,441.697 504.5,443.5C 503.508,443.328 502.842,443.662 502.5,444.5C 492.888,445.874 483.221,446.541 473.5,446.5C 473.158,445.662 472.492,445.328 471.5,445.5C 466.468,444.659 461.468,443.659 456.5,442.5C 436.911,434.917 424.911,420.917 420.5,400.5C 418.398,385.443 420.732,371.11 427.5,357.5C 434.414,346.584 443.081,337.251 453.5,329.5C 460.44,325.852 467.773,323.186 475.5,321.5C 476.167,321.5 476.5,321.167 476.5,320.5 Z"/></g>
<g><path style="opacity:1" fill="#010101" d="M 450.5,361.5 C 459.54,360.238 467.873,362.071 475.5,367C 486.933,377.233 488.433,388.733 480,401.5C 471.026,410.034 460.526,412.534 448.5,409C 431.656,400.807 427.489,388.307 436,371.5C 439.977,366.774 444.811,363.441 450.5,361.5 Z"/></g>
<g><path style="opacity:1" fill="#67380c" d="M 502.5,321.5 C 493.862,320.66 485.195,320.327 476.5,320.5C 479.55,319.065 482.883,318.398 486.5,318.5C 491.184,318.836 495.851,319.336 500.5,320C 502.343,320.159 503.009,320.659 502.5,321.5 Z"/></g>
<g><path style="opacity:1" fill="#ffbd00" d="M 212.5,469.5 C 212.369,468.761 212.536,468.094 213,467.5C 213.692,468.437 213.525,469.103 212.5,469.5 Z"/></g>
<g><path style="opacity:1" fill="#f90000" d="M 212.5,469.5 C 211.833,470.167 211.833,470.167 212.5,469.5 Z"/></g>
<g><path style="opacity:1" fill="#aea725" d="M 923.5,466.5 C 924.613,467.946 924.78,469.613 924,471.5C 923.506,469.866 923.34,468.199 923.5,466.5 Z"/></g>
<g><path style="opacity:1" fill="#f90000" d="M 212.5,471.5 C 213.833,472.167 213.833,472.167 212.5,471.5 Z"/></g>
<g><path style="opacity:1" fill="#87871c" d="M 211.5,484.5 C 211.337,482.143 211.503,479.81 212,477.5C 212.796,480.039 212.629,482.372 211.5,484.5 Z"/></g>
<g><path style="opacity:1" fill="#f9fa00" d="M 924.5,478.5 C 925.833,479.167 925.833,479.167 924.5,478.5 Z"/></g>
<g><path style="opacity:1" fill="#f90000" d="M 209.5,479.5 C 210.833,480.167 210.833,480.167 209.5,479.5 Z"/></g>
<g><path style="opacity:1" fill="#f9fa00" d="M 211.5,484.5 C 211.5,484.833 211.5,485.167 211.5,485.5C 210.83,485.019 210.83,484.685 211.5,484.5 Z"/></g>
<g><path style="opacity:1" fill="#5a2b07" d="M 441.5,479.5 C 438.529,486.045 435.862,492.045 433.5,497.5C 434.569,490.703 437.235,484.703 441.5,479.5 Z"/></g>
<g><path style="opacity:1" fill="#a7a850" d="M 924.5,486.5 C 925.833,487.167 925.833,487.167 924.5,486.5 Z"/></g>
<g><path style="opacity:1" fill="#a7a850" d="M 210.5,488.5 C 211.833,489.167 211.833,489.167 210.5,488.5 Z"/></g>
<g><path style="opacity:1" fill="#c6c600" d="M 210.5,492.5 C 211.622,494.288 211.789,496.288 211,498.5C 210.505,496.527 210.338,494.527 210.5,492.5 Z"/></g>
<g><path style="opacity:1" fill="#7a591c" d="M 919.5,445.5 C 926.39,488.972 926.056,532.306 918.5,575.5C 917.778,575.918 917.278,576.584 917,577.5C 922.228,534.775 922.728,491.941 918.5,449C 918.514,447.615 918.848,446.449 919.5,445.5 Z"/></g>
<g><path style="opacity:1" fill="#f3a468" d="M 617.5,487.5 C 623.041,490.436 628.041,494.103 632.5,498.5C 611.34,499.497 590.007,499.831 568.5,499.5C 565.833,499.5 563.167,499.5 560.5,499.5C 526.831,499.319 493.165,498.985 459.5,498.5C 458.602,497.842 457.602,497.176 456.5,496.5C 458.034,493.407 460.034,490.74 462.5,488.5C 460.957,490.928 459.957,493.594 459.5,496.5C 516.162,497.704 572.829,498.204 629.5,498C 625.262,494.583 621.262,491.083 617.5,487.5 Z"/></g>
<g><path style="opacity:1" fill="#5f4e02" d="M 459.5,498.5 C 493.165,498.985 526.831,499.319 560.5,499.5C 549.672,500.167 538.672,500.5 527.5,500.5C 504.085,500.444 481.419,499.777 459.5,498.5 Z"/></g>
<g><path style="opacity:1" fill="#bc7830" d="M 632.5,498.5 C 633.043,498.56 633.376,498.893 633.5,499.5C 611.67,500.828 590.004,500.828 568.5,499.5C 590.007,499.831 611.34,499.497 632.5,498.5 Z"/></g>
<g><path style="opacity:1" fill="#f90000" d="M 210.5,500.5 C 211.833,501.167 211.833,501.167 210.5,500.5 Z"/></g>
<g><path style="opacity:1" fill="#592b04" d="M 233.5,466.5 C 232.291,477.798 231.624,489.132 231.5,500.5C 230.671,508.323 230.171,516.323 230,524.5C 229.333,514.5 229.333,504.5 230,494.5C 230.457,484.36 231.624,475.026 233.5,466.5 Z"/></g>
<g><path style="opacity:1" fill="#dd4700" d="M 210.5,506.5 C 210.351,505.448 210.517,504.448 211,503.5C 211.74,504.749 211.573,505.749 210.5,506.5 Z"/></g>
<g><path style="opacity:1" fill="#f90000" d="M 210.5,506.5 C 210.5,506.833 210.5,507.167 210.5,507.5C 209.83,507.019 209.83,506.685 210.5,506.5 Z"/></g>
<g><path style="opacity:1" fill="#7c7d00" d="M 210.5,512.5 C 209.833,511.167 209.833,511.167 210.5,512.5 Z"/></g>
<g><path style="opacity:1" fill="#f90000" d="M 210.5,512.5 C 211.338,512.842 211.672,513.508 211.5,514.5C 210.662,514.158 210.328,513.492 210.5,512.5 Z"/></g>
<g><path style="opacity:1" fill="#4e1e03" d="M 432.5,499.5 C 433.147,500.274 433.48,501.274 433.5,502.5C 432.971,508.331 432.305,513.998 431.5,519.5C 431.336,512.798 431.669,506.131 432.5,499.5 Z"/></g>
<g><path style="opacity:1" fill="#613308" d="M 659.5,504.5 C 661.153,513.601 659.486,521.935 654.5,529.5C 657.696,521.369 659.362,513.035 659.5,504.5 Z"/></g>
<g><path style="opacity:1" fill="#f90000" d="M 208.5,521.5 C 209.833,522.167 209.833,522.167 208.5,521.5 Z"/></g>
<g><path style="opacity:1" fill="#f1a56a" d="M 622.5,535.5 C 622.062,535.565 621.728,535.399 621.5,535C 625.401,531.603 628.734,527.77 631.5,523.5C 572.838,522.361 514.172,521.694 455.5,521.5C 455.768,523.099 455.434,524.432 454.5,525.5C 453.306,523.516 453.306,521.516 454.5,519.5C 514.462,520.163 574.462,520.83 634.5,521.5C 631.571,527.095 627.571,531.761 622.5,535.5 Z"/></g>
<g><path style="opacity:1" fill="#f90000" d="M 210.5,523.5 C 211.525,523.897 211.692,524.563 211,525.5C 210.536,524.906 210.369,524.239 210.5,523.5 Z"/></g>
<g><path style="opacity:1" fill="#f9fa00" d="M 924.5,527.5 C 925.525,527.897 925.692,528.563 925,529.5C 924.536,528.906 924.369,528.239 924.5,527.5 Z"/></g>
<g><path style="opacity:1" fill="#f9fa00" d="M 210.5,529.5 C 211.833,530.167 211.833,530.167 210.5,529.5 Z"/></g>
<g><path style="opacity:1" fill="#f29a57" d="M 622.5,535.5 C 608.362,547.566 592.029,555.4 573.5,559C 566.574,560.519 559.574,561.519 552.5,562C 536.833,562.667 521.167,562.667 505.5,562C 488.725,561.027 474.559,554.527 463,542.5C 459.101,537.369 456.268,531.702 454.5,525.5C 455.434,524.432 455.768,523.099 455.5,521.5C 514.172,521.694 572.838,522.361 631.5,523.5C 628.734,527.77 625.401,531.603 621.5,535C 621.728,535.399 622.062,535.565 622.5,535.5 Z"/></g>
<g><path style="opacity:1" fill="#f90000" d="M 210.5,531.5 C 211.833,532.167 211.833,532.167 210.5,531.5 Z"/></g>
<g><path style="opacity:1" fill="#f9fa00" d="M 924.5,531.5 C 925.833,532.167 925.833,532.167 924.5,531.5 Z"/></g>
<g><path style="opacity:1" fill="#f9fa00" d="M 210.5,533.5 C 211.833,534.167 211.833,534.167 210.5,533.5 Z"/></g>
<g><path style="opacity:1" fill="#e04d10" d="M 210.5,536.5 C 211.598,537.601 211.765,538.934 211,540.5C 210.51,539.207 210.343,537.873 210.5,536.5 Z"/></g>
<g><path style="opacity:1" fill="#f9fa00" d="M 923.5,542.5 C 924.833,543.167 924.833,543.167 923.5,542.5 Z"/></g>
<g><path style="opacity:1" fill="#7c7d00" d="M 211.5,545.5 C 212.833,546.167 212.833,546.167 211.5,545.5 Z"/></g>
<g><path style="opacity:1" fill="#f9fa00" d="M 923.5,546.5 C 924.525,546.897 924.692,547.563 924,548.5C 923.536,547.906 923.369,547.239 923.5,546.5 Z"/></g>
<g><path style="opacity:1" fill="#e6b128" d="M 211.5,547.5 C 212.598,548.601 212.765,549.934 212,551.5C 211.51,550.207 211.343,548.873 211.5,547.5 Z"/></g>
<g><path style="opacity:1" fill="#7c7d00" d="M 923.5,550.5 C 924.833,551.167 924.833,551.167 923.5,550.5 Z"/></g>
<g><path style="opacity:1" fill="#602f09" d="M 904.5,535.5 C 905.487,546.304 904.487,556.971 901.5,567.5C 902.62,556.845 903.62,546.179 904.5,535.5 Z"/></g>
<g><path style="opacity:1" fill="#7c7d00" d="M 213.5,558.5 C 214.833,559.167 214.833,559.167 213.5,558.5 Z"/></g>
<g><path style="opacity:1" fill="#5a2d0a" d="M 900.5,569.5 C 901.139,570.097 901.472,570.93 901.5,572C 901.133,576.073 900.133,579.239 898.5,581.5C 898.952,577.454 899.619,573.454 900.5,569.5 Z"/></g>
<g><path style="opacity:1" fill="#f9fa00" d="M 225.5,575.5 C 225.5,576.167 225.833,576.5 226.5,576.5C 226.5,576.833 226.5,577.167 226.5,577.5C 226.167,577.5 225.833,577.5 225.5,577.5C 224.167,576.833 224.167,576.167 225.5,575.5 Z"/></g>
<g><path style="opacity:1" fill="#e24000" d="M 225.5,577.5 C 225.833,577.5 226.167,577.5 226.5,577.5C 226.833,578.167 227.167,578.833 227.5,579.5C 225.797,580.66 225.131,579.993 225.5,577.5 Z"/></g>
<g><path style="opacity:1" fill="#ba7d3d" d="M 227.5,579.5 C 228.833,580.167 228.833,580.167 227.5,579.5 Z"/></g>
<g><path style="opacity:1" fill="#f9fa00" d="M 228.5,582.5 C 227.761,582.631 227.094,582.464 226.5,582C 227.437,581.308 228.103,581.475 228.5,582.5 Z"/></g>
<g><path style="opacity:1" fill="#f7f282" d="M 588.5,574.5 C 589.552,574.351 590.552,574.517 591.5,575C 564.263,582.038 536.596,584.372 508.5,582C 501.421,581.436 494.421,580.436 487.5,579C 488.094,578.536 488.761,578.369 489.5,578.5C 522.758,583.365 555.758,582.031 588.5,574.5 Z"/></g>
<g><path style="opacity:1" fill="#a5a51b" d="M 918.5,578.5 C 919.613,579.946 919.78,581.613 919,583.5C 918.506,581.866 918.34,580.199 918.5,578.5 Z"/></g>
<g><path style="opacity:1" fill="#cece00" d="M 228.5,582.5 C 229.239,582.369 229.906,582.536 230.5,583C 229.563,583.692 228.897,583.525 228.5,582.5 Z"/></g>
<g><path style="opacity:1" fill="#f9fa00" d="M 917.5,584.5 C 918.833,585.167 918.833,585.167 917.5,584.5 Z"/></g>
<g><path style="opacity:1" fill="#592807" d="M 897.5,584.5 C 898.598,585.601 898.765,586.934 898,588.5C 896.02,595.961 893.187,602.961 889.5,609.5C 892.562,601.312 895.229,592.979 897.5,584.5 Z"/></g>
<g><path style="opacity:1" fill="#a7a850" d="M 916.5,590.5 C 917.833,591.167 917.833,591.167 916.5,590.5 Z"/></g>
<g><path style="opacity:1" fill="#cece00" d="M 227.5,592.5 C 226.761,592.631 226.094,592.464 225.5,592C 226.437,591.308 227.103,591.475 227.5,592.5 Z"/></g>
<g><path style="opacity:1" fill="#f9fa00" d="M 217.5,592.5 C 218.833,593.167 218.833,593.167 217.5,592.5 Z"/></g>
<g><path style="opacity:1" fill="#f9fa00" d="M 223.5,592.5 C 224.833,593.167 224.833,593.167 223.5,592.5 Z"/></g>
<g><path style="opacity:1" fill="#dfdf00" d="M 217.5,593.5 C 217.5,594.167 217.5,594.833 217.5,595.5C 214.833,594.833 214.833,594.167 217.5,593.5 Z"/></g>
<g><path style="opacity:1" fill="#f90000" d="M 219.5,594.5 C 220.833,595.167 220.833,595.167 219.5,594.5 Z"/></g>
<g><path style="opacity:1" fill="#f9fa00" d="M 915.5,594.5 C 916.833,595.167 916.833,595.167 915.5,594.5 Z"/></g>
<g><path style="opacity:1" fill="#a75150" d="M 217.5,595.5 C 218.167,595.5 218.5,595.833 218.5,596.5C 218.167,596.167 217.833,595.833 217.5,595.5 Z"/></g>
<g><path style="opacity:1" fill="#a75150" d="M 216.5,597.5 C 215.833,596.167 215.833,596.167 216.5,597.5 Z"/></g>
<g><path style="opacity:1" fill="#f90000" d="M 204.5,599.5 C 205.833,600.167 205.833,600.167 204.5,599.5 Z"/></g>
<g><path style="opacity:1" fill="#c3c245" d="M 210.5,600.5 C 209.761,600.631 209.094,600.464 208.5,600C 209.437,599.308 210.103,599.475 210.5,600.5 Z"/></g>
<g><path style="opacity:1" fill="#cece00" d="M 203.5,602.5 C 203.167,602.5 202.833,602.5 202.5,602.5C 202.833,599.833 203.167,599.833 203.5,602.5 Z"/></g>
<g><path style="opacity:1" fill="#f9fa00" d="M 203.5,602.5 C 204.167,602.5 204.5,602.833 204.5,603.5C 204.167,603.167 203.833,602.833 203.5,602.5 Z"/></g>
<g><path style="opacity:1" fill="#e48d00" d="M 202.5,602.5 C 201.998,604.085 200.998,604.585 199.5,604C 200.244,602.961 201.244,602.461 202.5,602.5 Z"/></g>
<g><path style="opacity:1" fill="#582605" d="M 254.5,603.5 C 259.279,604.39 264.279,604.39 269.5,603.5C 269.389,604.117 269.056,604.617 268.5,605C 263.682,605.779 259.015,605.279 254.5,603.5 Z"/></g>
<g><path style="opacity:1" fill="#bcbb48" d="M 191.5,608.5 C 192.5,607.167 193.5,607.167 194.5,608.5C 193.5,608.5 192.5,608.5 191.5,608.5 Z"/></g>
<g><path style="opacity:1" fill="#e93600" d="M 185.5,610.5 C 184.596,611.209 184.263,612.209 184.5,613.5C 183.387,612.054 183.22,610.387 184,608.5C 184.717,609.044 185.217,609.711 185.5,610.5 Z"/></g>
<g><path style="opacity:1" fill="#f90000" d="M 186.5,608.5 C 187.833,609.167 187.833,609.167 186.5,608.5 Z"/></g>
<g><path style="opacity:1" fill="#a75150" d="M 191.5,608.5 C 190.833,609.167 190.833,609.167 191.5,608.5 Z"/></g>
<g><path style="opacity:1" fill="#b6b62c" d="M 910.5,608.5 C 911.833,609.167 911.833,609.833 910.5,610.5C 910.5,609.833 910.5,609.167 910.5,608.5 Z"/></g>
<g><path style="opacity:1" fill="#956431" d="M 185.5,610.5 C 186.833,611.167 186.833,611.167 185.5,610.5 Z"/></g>
<g><path style="opacity:1" fill="#997d1b" d="M 909.5,610.5 C 909.833,610.5 910.167,610.5 910.5,610.5C 910.167,613.167 909.833,613.167 909.5,610.5 Z"/></g>
<g><path style="opacity:1" fill="#8b8b23" d="M 908.5,613.5 C 909.525,613.897 909.692,614.563 909,615.5C 908.536,614.906 908.369,614.239 908.5,613.5 Z"/></g>
<g><path style="opacity:1" fill="#f90000" d="M 167.5,615.5 C 168.833,616.167 168.833,616.167 167.5,615.5 Z"/></g>
<g><path style="opacity:1" fill="#b58b44" d="M 178.5,616.5 C 177.761,616.631 177.094,616.464 176.5,616C 177.437,615.308 178.103,615.475 178.5,616.5 Z"/></g>
<g><path style="opacity:1" fill="#f90000" d="M 904.5,620.5 C 905.833,621.167 905.833,621.167 904.5,620.5 Z"/></g>
<g><path style="opacity:1" fill="#f90000" d="M 1019.5,621.5 C 1020.83,622.167 1020.83,622.167 1019.5,621.5 Z"/></g>
<g><path style="opacity:1" fill="#7c7d00" d="M 164.5,624.5 C 163.833,623.167 163.833,623.167 164.5,624.5 Z"/></g>
<g><path style="opacity:1" fill="#7c7d00" d="M 160.5,624.5 C 161.833,625.167 161.833,625.167 160.5,624.5 Z"/></g>
<g><path style="opacity:1" fill="#f9fa00" d="M 160.5,625.5 C 160.5,625.833 160.5,626.167 160.5,626.5C 159.83,626.019 159.83,625.685 160.5,625.5 Z"/></g>
<g><path style="opacity:1" fill="#887d0c" d="M 901.5,625.5 C 903.424,625.711 903.757,626.377 902.5,627.5C 902.167,626.833 901.833,626.167 901.5,625.5 Z"/></g>
<g><path style="opacity:1" fill="#de4523" d="M 146.5,634.5 C 145.913,633.233 145.913,632.233 146.5,631.5C 147.776,632.614 147.776,633.614 146.5,634.5 Z"/></g>
<g><path style="opacity:1" fill="#7c7d3d" d="M 149.5,631.5 C 150.833,632.167 150.833,632.167 149.5,631.5 Z"/></g>
<g><path style="opacity:1" fill="#a75150" d="M 149.5,632.5 C 149.5,632.833 149.5,633.167 149.5,633.5C 148.83,633.019 148.83,632.685 149.5,632.5 Z"/></g>
<g><path style="opacity:1" fill="#5d2907" d="M 194.5,628.5 C 189.984,631.927 184.984,634.593 179.5,636.5C 184.016,633.073 189.016,630.407 194.5,628.5 Z"/></g>
<g><path style="opacity:1" fill="#f9fa00" d="M 914.5,632.5 C 915.833,633.167 915.833,633.167 914.5,632.5 Z"/></g>
<g><path style="opacity:1" fill="#f9fa00" d="M 916.5,632.5 C 917.833,633.167 917.833,633.167 916.5,632.5 Z"/></g>
<g><path style="opacity:1" fill="#7c7d00" d="M 913.5,634.5 C 912.833,633.167 912.833,633.167 913.5,634.5 Z"/></g>
<g><path style="opacity:1" fill="#a75150" d="M 146.5,634.5 C 146.5,634.833 146.5,635.167 146.5,635.5C 145.83,635.019 145.83,634.685 146.5,634.5 Z"/></g>
<g><path style="opacity:1" fill="#a7a850" d="M 913.5,634.5 C 914.833,635.167 914.833,635.167 913.5,634.5 Z"/></g>
<g><path style="opacity:1" fill="#f90000" d="M 136.5,639.5 C 137.833,640.167 137.833,640.167 136.5,639.5 Z"/></g>
<g><path style="opacity:1" fill="#a7a850" d="M 918.5,639.5 C 919.833,640.167 919.833,640.167 918.5,639.5 Z"/></g>
<g><path style="opacity:1" fill="#f9fa00" d="M 920.5,641.5 C 921.833,642.167 921.833,642.167 920.5,641.5 Z"/></g>
<g><path style="opacity:1" fill="#7c7d00" d="M 134.5,642.5 C 135.833,643.167 135.833,643.167 134.5,642.5 Z"/></g>
<g><path style="opacity:1" fill="#592606" d="M 874.5,637.5 C 878.44,640.903 883.107,642.403 888.5,642C 891.684,642.754 894.351,644.254 896.5,646.5C 894.5,645.833 892.5,645.167 890.5,644.5C 886.796,642.909 882.796,642.076 878.5,642C 876.249,641.252 874.916,639.752 874.5,637.5 Z"/></g>
<g><path style="opacity:1" fill="#f9fa00" d="M 923.5,642.5 C 924.833,643.167 924.833,643.167 923.5,642.5 Z"/></g>
<g><path style="opacity:1" fill="#f9fa00" d="M 923.5,645.5 C 924.833,646.167 924.833,646.167 923.5,645.5 Z"/></g>
<g><path style="opacity:1" fill="#7c7d00" d="M 925.5,647.5 C 926.833,648.167 926.833,648.167 925.5,647.5 Z"/></g>
<g><path style="opacity:1" fill="#dfdf00" d="M 934.5,659.5 C 934.167,659.5 933.833,659.5 933.5,659.5C 933.5,658.833 933.167,658.5 932.5,658.5C 932.5,658.167 932.5,657.833 932.5,657.5C 932.435,657.062 932.601,656.728 933,656.5C 934.039,657.244 934.539,658.244 934.5,659.5 Z"/></g>
<g><path style="opacity:1" fill="#7c7d00" d="M 120.5,657.5 C 121.833,658.167 121.833,658.167 120.5,657.5 Z"/></g>
<g><path style="opacity:1" fill="#f9fa00" d="M 120.5,658.5 C 119.833,659.167 119.833,659.167 120.5,658.5 Z"/></g>
<g><path style="opacity:1" fill="#cece00" d="M 934.5,659.5 C 935.833,660.167 935.833,660.833 934.5,661.5C 934.5,660.833 934.5,660.167 934.5,659.5 Z"/></g>
<g><path style="opacity:1" fill="#7c7d00" d="M 937.5,665.5 C 938.623,664.243 939.289,664.576 939.5,666.5C 939.167,666.5 938.833,666.5 938.5,666.5C 938.5,665.833 938.167,665.5 937.5,665.5 Z"/></g>
<g><path style="opacity:1" fill="#f9fa00" d="M 940.5,664.5 C 941.833,665.167 941.833,665.167 940.5,664.5 Z"/></g>
<g><path style="opacity:1" fill="#f9fa00" d="M 942.5,664.5 C 943.833,665.167 943.833,665.167 942.5,664.5 Z"/></g>
<g><path style="opacity:1" fill="#f90000" d="M 114.5,665.5 C 115.833,666.167 115.833,666.167 114.5,665.5 Z"/></g>
<g><path style="opacity:1" fill="#f9fa00" d="M 939.5,666.5 C 940.833,667.167 940.833,667.833 939.5,668.5C 939.5,667.833 939.5,667.167 939.5,666.5 Z"/></g>
<g><path style="opacity:1" fill="#cece00" d="M 941.5,671.5 C 941.897,670.475 942.563,670.308 943.5,671C 942.906,671.464 942.239,671.631 941.5,671.5 Z"/></g>
<g><path style="opacity:1" fill="#ba7d3d" d="M 112.5,672.5 C 111.833,671.167 111.833,671.167 112.5,672.5 Z"/></g>
<g><path style="opacity:1" fill="#7c7d00" d="M 942.5,672.5 C 943.833,673.167 943.833,673.167 942.5,672.5 Z"/></g>
<g><path style="opacity:1" fill="#f90000" d="M 106.5,680.5 C 105.833,679.167 105.833,679.167 106.5,680.5 Z"/></g>
<g><path style="opacity:1" fill="#f9fa00" d="M 950.5,679.5 C 951.833,680.167 951.833,680.167 950.5,679.5 Z"/></g>
<g><path style="opacity:1" fill="#f9fa00" d="M 947.5,680.5 C 948.833,681.167 948.833,681.167 947.5,680.5 Z"/></g>
<g><path style="opacity:1" fill="#c34600" d="M 106.5,680.5 C 107.338,680.842 107.672,681.508 107.5,682.5C 106.662,682.158 106.328,681.492 106.5,680.5 Z"/></g>
<g><path style="opacity:1" fill="#f90000" d="M 104.5,682.5 C 105.833,683.167 105.833,683.167 104.5,682.5 Z"/></g>
<g><path style="opacity:1" fill="#7c7d00" d="M 950.5,685.5 C 951.833,686.167 951.833,686.167 950.5,685.5 Z"/></g>
<g><path style="opacity:1" fill="#f9fa00" d="M 956.5,688.5 C 957.833,689.167 957.833,689.167 956.5,688.5 Z"/></g>
<g><path style="opacity:1" fill="#7c7d00" d="M 102.5,696.5 C 101.833,695.167 101.833,695.167 102.5,696.5 Z"/></g>
<g><path style="opacity:1" fill="#87751c" d="M 98.5,706.5 C 97.913,705.233 97.913,704.233 98.5,703.5C 99.7759,704.614 99.7759,705.614 98.5,706.5 Z"/></g>
<g><path style="opacity:1" fill="#f90000" d="M 96.5,705.5 C 95.8333,704.167 95.8333,704.167 96.5,705.5 Z"/></g>
<g><path style="opacity:1" fill="#f90000" d="M 96.5,705.5 C 97.1667,705.5 97.5,705.833 97.5,706.5C 97.1667,706.167 96.8333,705.833 96.5,705.5 Z"/></g>
<g><path style="opacity:1" fill="#f90000" d="M 96.5,706.5 C 95.8333,707.167 95.8333,707.167 96.5,706.5 Z"/></g>
<g><path style="opacity:1" fill="#c95900" d="M 97.5,706.5 C 97.8333,706.5 98.1667,706.5 98.5,706.5C 98.8333,707.167 99.1667,707.833 99.5,708.5C 98.7195,710.628 97.7195,710.795 96.5,709C 97.2524,708.329 97.5858,707.496 97.5,706.5 Z"/></g>
<g><path style="opacity:1" fill="#f9fa00" d="M 963.5,709.5 C 964.833,710.167 964.833,710.167 963.5,709.5 Z"/></g>
<g><path style="opacity:1" fill="#7c7d00" d="M 98.5,712.5 C 97.8333,711.167 97.8333,711.167 98.5,712.5 Z"/></g>
<g><path style="opacity:1" fill="#c78600" d="M 97.5,712.5 C 97.6567,713.873 97.49,715.207 97,716.5C 96.235,714.934 96.4017,713.601 97.5,712.5 Z"/></g>
<g><path style="opacity:1" fill="#f9fa00" d="M 968.5,721.5 C 969.833,722.167 969.833,722.167 968.5,721.5 Z"/></g>
<g><path style="opacity:1" fill="#74551a" d="M 938.5,668.5 C 938.833,668.5 939.167,668.5 939.5,668.5C 939.427,670.027 940.094,671.027 941.5,671.5C 941.328,672.492 941.662,673.158 942.5,673.5C 943.669,676.511 945.336,679.178 947.5,681.5C 954.294,695.425 961.294,709.091 968.5,722.5C 970.264,727.022 972.264,731.355 974.5,735.5C 979.264,747.351 984.264,759.017 989.5,770.5C 991.7,777.907 994.2,785.241 997,792.5C 997.984,790.205 998.817,790.539 999.5,793.5C 998.833,793.833 998.167,794.167 997.5,794.5C 998.246,795.736 998.579,797.07 998.5,798.5C 996.716,797.426 995.549,795.76 995,793.5C 979.877,749.273 960.544,707.273 937,667.5C 937.383,668.056 937.883,668.389 938.5,668.5 Z"/></g>
<g><path style="opacity:1" fill="#7c7d00" d="M 973.5,730.5 C 974.833,731.167 974.833,731.167 973.5,730.5 Z"/></g>
<g><path style="opacity:1" fill="#b9b900" d="M 974.5,735.5 C 974.351,734.448 974.517,733.448 975,732.5C 975.74,733.749 975.573,734.749 974.5,735.5 Z"/></g>
<g><path style="opacity:1" fill="#4d1901" d="M 117.5,712.5 C 116.644,723.81 116.31,735.143 116.5,746.5C 115.77,743.228 115.437,738.561 115.5,732.5C 115.667,727.167 115.833,721.833 116,716.5C 116.21,714.942 116.71,713.609 117.5,712.5 Z"/></g>
<g><path style="opacity:1" fill="#87641d" d="M 443.5,216.5 C 444.833,216.5 446.167,216.5 447.5,216.5C 448.239,216.369 448.906,216.536 449.5,217C 446.464,219.006 443.131,219.84 439.5,219.5C 439.5,220.5 439.5,221.5 439.5,222.5C 437.408,222.561 435.908,223.561 435,225.5C 434.586,225.043 434.086,224.709 433.5,224.5C 430.775,226.978 428.108,226.978 425.5,224.5C 420.578,226.211 415.578,227.711 410.5,229C 409.62,230.356 409.286,231.856 409.5,233.5C 406.203,233.329 405.869,233.995 408.5,235.5C 407.753,235.736 406.92,236.07 406,236.5C 404.237,235.056 402.237,234.056 400,233.5C 398.635,234.593 398.301,235.926 399,237.5C 400.512,238.257 401.846,239.257 403,240.5C 403.085,238.915 403.251,237.582 403.5,236.5C 404.685,237.853 406.019,239.02 407.5,240C 406.692,240.308 406.025,240.808 405.5,241.5C 408.058,243.12 408.058,244.62 405.5,246C 408.502,245.842 411.502,245.342 414.5,244.5C 403.673,248.442 393.006,252.776 382.5,257.5C 346.962,271.265 317.628,293.265 294.5,323.5C 290.153,327.686 286.32,332.353 283,337.5C 267.841,360.486 255.341,384.819 245.5,410.5C 243.39,414.502 242.057,418.835 241.5,423.5C 238.294,437.857 235.627,452.19 233.5,466.5C 231.624,475.026 230.457,484.36 230,494.5C 229.333,504.5 229.333,514.5 230,524.5C 230.171,516.323 230.671,508.323 231.5,500.5C 231.333,513.171 231.5,525.838 232,538.5C 232.896,552.458 238.729,563.958 249.5,573C 257.246,578.623 265.079,584.123 273,589.5C 274.422,592.03 274.755,594.697 274,597.5C 273.668,600.543 272.168,602.543 269.5,603.5C 264.279,604.39 259.279,604.39 254.5,603.5C 251.393,603.351 248.393,603.851 245.5,605C 228.448,612.862 211.448,620.695 194.5,628.5C 189.016,630.407 184.016,633.073 179.5,636.5C 170.224,641.811 161.224,647.644 152.5,654C 133.784,669.263 122.117,688.763 117.5,712.5C 116.71,713.609 116.21,714.942 116,716.5C 115.833,721.833 115.667,727.167 115.5,732.5C 115.437,738.561 115.77,743.228 116.5,746.5C 117.35,751.737 118.35,757.071 119.5,762.5C 119.207,769.604 121.54,775.937 126.5,781.5C 130.833,786.5 135.5,791.167 140.5,795.5C 147.381,800.36 155.048,803.693 163.5,805.5C 164.107,805.376 164.44,805.043 164.5,804.5C 167.581,795.929 171.248,787.596 175.5,779.5C 177.121,776.433 179.121,773.599 181.5,771C 180.748,770.329 180.414,769.496 180.5,768.5C 185.482,755.7 192.149,743.867 200.5,733C 209.426,729.801 213.759,732.967 213.5,742.5C 198.52,768.456 186.853,795.79 178.5,824.5C 176.392,829.912 174.725,835.579 173.5,841.5C 173.543,842.416 173.876,843.083 174.5,843.5C 174.5,844.167 174.167,844.5 173.5,844.5C 171.166,849.817 169.833,855.484 169.5,861.5C 167.924,865.054 166.924,868.887 166.5,873C 166.528,874.07 166.861,874.903 167.5,875.5C 167.672,876.492 167.338,877.158 166.5,877.5C 165.034,881.018 164.034,885.351 163.5,890.5C 163.52,891.726 163.853,892.726 164.5,893.5C 164.672,894.492 164.338,895.158 163.5,895.5C 161.928,899.845 160.928,905.012 160.5,911C 160.514,912.385 160.848,913.551 161.5,914.5C 160.949,918.973 160.283,923.307 159.5,927.5C 159.631,926.761 159.464,926.094 159,925.5C 156.155,952.796 155.822,980.13 158,1007.5C 158.126,1013 158.959,1017.67 160.5,1021.5C 161.338,1021.84 161.672,1022.51 161.5,1023.5C 153.833,1023.5 146.167,1023.5 138.5,1023.5C 138.22,996.727 138.22,969.393 138.5,941.5C 140.122,934.459 140.455,927.292 139.5,920C 142.951,908.839 144.451,897.339 144,885.5C 144.981,891.864 145.481,891.531 145.5,884.5C 146.461,882.735 146.795,880.735 146.5,878.5C 150.686,859.588 155.019,840.588 159.5,821.5C 156.794,821.425 154.127,821.092 151.5,820.5C 149.064,819.129 146.397,818.129 143.5,817.5C 141.635,815.466 139.468,814.799 137,815.5C 135.982,813.072 134.148,811.738 131.5,811.5C 131.217,810.711 130.717,810.044 130,809.5C 129.577,810.956 128.744,811.456 127.5,811C 127.787,807.737 126.12,805.57 122.5,804.5C 120.833,802.167 118.833,800.167 116.5,798.5C 116.5,797.833 116.167,797.5 115.5,797.5C 115.672,796.508 115.338,795.842 114.5,795.5C 114.5,794.833 114.167,794.5 113.5,794.5C 112.488,793.128 111.488,791.795 110.5,790.5C 110.672,789.508 110.338,788.842 109.5,788.5C 109.167,787.167 108.833,787.167 108.5,788.5C 108.102,785.619 106.935,782.619 105,779.5C 104.667,780.167 104.333,780.833 104,781.5C 103.405,780.101 103.572,778.768 104.5,777.5C 102.044,771.01 100.211,764.344 99,757.5C 98.6667,758.167 98.3333,758.833 98,759.5C 96.5783,756.97 96.245,754.303 97,751.5C 97.3333,752.833 97.6667,754.167 98,755.5C 97.8159,744.524 97.4826,733.524 97,722.5C 96.6667,730.5 96.3333,738.5 96,746.5C 95.8333,742 95.6667,737.5 95.5,733C 95.5088,724.148 96.5088,717.315 98.5,712.5C 99.4345,711.432 99.7678,710.099 99.5,708.5C 100.787,704.687 101.787,700.687 102.5,696.5C 104.538,692.06 106.204,687.393 107.5,682.5C 109.674,679.485 111.341,676.151 112.5,672.5C 121.318,657.873 132.651,645.539 146.5,635.5C 148.027,635.573 149.027,634.906 149.5,633.5C 153.439,631.554 157.106,629.221 160.5,626.5C 162.153,626.34 163.486,625.674 164.5,624.5C 166.14,623.68 167.807,622.847 169.5,622C 170.833,621.333 170.833,620.667 169.5,620C 172.869,620.213 175.869,619.047 178.5,616.5C 180.819,616.008 182.819,615.008 184.5,613.5C 188.151,612.341 191.485,610.674 194.5,608.5C 197.877,606.825 201.211,605.158 204.5,603.5C 206.819,603.008 208.819,602.008 210.5,600.5C 212.819,600.008 214.819,599.008 216.5,597.5C 217.492,597.672 218.158,597.338 218.5,596.5C 221.912,595.958 224.912,594.625 227.5,592.5C 229.924,591.97 232.257,591.136 234.5,590C 233.346,589.086 233.513,588.253 235,587.5C 235.423,588.956 236.256,589.456 237.5,589C 236.81,586.304 235.31,584.137 233,582.5C 232.667,582.833 232.333,583.167 232,583.5C 230.629,580.734 228.796,578.401 226.5,576.5C 225.833,576.5 225.5,576.167 225.5,575.5C 223.678,572.528 221.844,569.528 220,566.5C 218.951,567.517 217.784,567.684 216.5,567C 215.751,564.549 215.751,561.882 216.5,559C 214.65,553.329 212.984,547.662 211.5,542C 212.711,532.587 212.711,523.42 211.5,514.5C 212.097,514.265 212.43,513.765 212.5,513C 211.144,511.433 210.477,509.6 210.5,507.5C 211.117,507.611 211.617,507.944 212,508.5C 212.798,500.754 212.631,493.087 211.5,485.5C 212.787,484.129 213.453,482.295 213.5,480C 214.08,471.282 215.08,462.615 216.5,454C 216.294,452.634 215.96,451.301 215.5,450C 216.794,449.894 217.461,448.894 217.5,447C 217.245,445.674 216.578,444.674 215.5,444C 216.227,442.601 216.727,441.101 217,439.5C 218.008,444.541 218.508,444.208 218.5,438.5C 220.944,431.06 222.944,423.394 224.5,415.5C 225.612,413.401 226.279,411.067 226.5,408.5C 227.67,406.35 228.67,404.016 229.5,401.5C 229.291,400.914 228.957,400.414 228.5,400C 230.656,398.397 231.99,396.23 232.5,393.5C 231.572,392.232 231.405,390.899 232,389.5C 232.333,390.167 232.667,390.833 233,391.5C 234.136,389.257 234.97,386.924 235.5,384.5C 236.931,383.22 237.598,381.553 237.5,379.5C 238.601,378.152 239.601,376.652 240.5,375C 239.366,373.984 239.699,373.317 241.5,373C 239.226,371.645 239.226,370.145 241.5,368.5C 241.351,369.552 241.517,370.552 242,371.5C 244.785,366.265 247.285,360.932 249.5,355.5C 250.338,355.158 250.672,354.492 250.5,353.5C 253.614,350.289 255.28,346.622 255.5,342.5C 257.769,341.995 259.103,340.662 259.5,338.5C 262.221,335.106 264.554,331.439 266.5,327.5C 267.5,327.167 268.167,326.5 268.5,325.5C 269.596,323.897 270.93,322.397 272.5,321C 272.167,320.667 271.833,320.333 271.5,320C 273.679,319.558 274.345,318.558 273.5,317C 276.717,315.285 279.05,312.785 280.5,309.5C 283.098,308.472 283.098,307.472 280.5,306.5C 282.483,306.843 283.817,306.176 284.5,304.5C 286.296,303.207 287.963,301.707 289.5,300C 288.833,299.667 288.167,299.333 287.5,299C 288.678,298.033 290.011,297.533 291.5,297.5C 294.189,294.48 296.856,291.48 299.5,288.5C 302.432,287.2 304.766,285.2 306.5,282.5C 307.5,282.167 308.167,281.5 308.5,280.5C 332.049,261.388 358.049,246.388 386.5,235.5C 388.153,235.34 389.486,234.674 390.5,233.5C 391.791,233.737 392.791,233.404 393.5,232.5C 401.38,230.208 409.046,227.541 416.5,224.5C 419.785,224.072 422.785,223.072 425.5,221.5C 428.152,221.59 430.485,220.924 432.5,219.5C 433.791,219.737 434.791,219.404 435.5,218.5C 438.428,218.435 441.095,217.768 443.5,216.5 Z"/></g>
<g><path style="opacity:1" fill="#87641d" d="M 612.5,201.5 C 617.973,202.617 623.64,203.283 629.5,203.5C 638.96,205.617 648.627,207.284 658.5,208.5C 662.16,209.673 665.993,210.673 670,211.5C 670.765,211.43 671.265,211.097 671.5,210.5C 677.782,213.409 684.448,215.409 691.5,216.5C 693.515,217.924 695.848,218.59 698.5,218.5C 701.215,220.072 704.215,221.072 707.5,221.5C 710.797,223.601 714.463,224.935 718.5,225.5C 719.167,226.833 719.833,226.833 720.5,225.5C 721.167,225.5 721.833,225.5 722.5,225.5C 720.969,226.925 721.302,227.591 723.5,227.5C 727.655,229.402 731.989,231.069 736.5,232.5C 736.842,233.338 737.508,233.672 738.5,233.5C 739.209,234.404 740.209,234.737 741.5,234.5C 744.088,236.625 747.088,237.958 750.5,238.5C 751.866,240.351 753.533,240.684 755.5,239.5C 756.141,240.993 757.141,241.993 758.5,242.5C 759.514,243.674 760.847,244.34 762.5,244.5C 763.514,245.674 764.847,246.34 766.5,246.5C 768.849,248.341 771.515,249.674 774.5,250.5C 775.659,252.25 777.326,253.25 779.5,253.5C 780.965,254.737 782.632,255.737 784.5,256.5C 784.842,257.338 785.508,257.672 786.5,257.5C 787.172,258.267 788.005,258.934 789,259.5C 789.718,258.549 790.551,258.383 791.5,259C 790.167,259.667 790.167,260.333 791.5,261C 794.411,262.761 797.411,264.261 800.5,265.5C 800.973,266.906 801.973,267.573 803.5,267.5C 804.29,268.401 805.29,269.068 806.5,269.5C 807.899,270.89 809.566,271.89 811.5,272.5C 812.659,274.25 814.326,275.25 816.5,275.5C 817.436,276.974 818.77,277.974 820.5,278.5C 821.29,279.401 822.29,280.068 823.5,280.5C 824.167,280.5 824.5,280.833 824.5,281.5C 824.833,281.5 825.167,281.5 825.5,281.5C 825.5,282.167 825.833,282.5 826.5,282.5C 833.278,287.742 840.944,293.409 849.5,299.5C 852.52,302.516 855.854,305.183 859.5,307.5C 861.127,309.63 862.96,311.63 865,313.5C 865.333,313.167 865.667,312.833 866,312.5C 870.032,317.361 874.199,322.028 878.5,326.5C 883.093,332.697 887.427,339.03 891.5,345.5C 893.322,351.136 895.655,356.469 898.5,361.5C 898.328,362.492 898.662,363.158 899.5,363.5C 899.833,366.167 900.167,366.167 900.5,363.5C 901.738,365.214 902.405,367.214 902.5,369.5C 901.957,369.56 901.624,369.893 901.5,370.5C 904.535,379.275 907.535,387.942 910.5,396.5C 911.139,400.527 911.972,404.527 913,408.5C 913.914,407.346 914.747,407.513 915.5,409C 914.572,409.388 913.905,410.055 913.5,411C 914.787,416.644 916.12,422.144 917.5,427.5C 917.5,429.167 917.5,430.833 917.5,432.5C 917.216,434.415 917.549,436.081 918.5,437.5C 919.265,440.096 919.599,442.763 919.5,445.5C 918.848,446.449 918.514,447.615 918.5,449C 922.728,491.941 922.228,534.775 917,577.5C 917.278,576.584 917.778,575.918 918.5,575.5C 918.5,576.5 918.5,577.5 918.5,578.5C 915.858,588.392 913.192,598.392 910.5,608.5C 909.662,608.842 909.328,609.508 909.5,610.5C 907.326,613.515 905.659,616.849 904.5,620.5C 902.75,621.659 901.75,623.326 901.5,625.5C 900.243,626.623 900.576,627.289 902.5,627.5C 906.321,630.087 909.654,632.421 912.5,634.5C 914.118,636.785 916.118,638.785 918.5,640.5C 918.833,641.5 919.5,642.167 920.5,642.5C 920.738,644.404 921.738,645.738 923.5,646.5C 923.833,647.5 924.5,648.167 925.5,648.5C 927.482,651.81 929.815,654.81 932.5,657.5C 932.5,657.833 932.5,658.167 932.5,658.5C 933.167,658.5 933.5,658.833 933.5,659.5C 933.328,660.492 933.662,661.158 934.5,661.5C 935.512,662.872 936.512,664.205 937.5,665.5C 938.167,665.5 938.5,665.833 938.5,666.5C 938.5,667.167 938.5,667.833 938.5,668.5C 937.883,668.389 937.383,668.056 937,667.5C 960.544,707.273 979.877,749.273 995,793.5C 995.549,795.76 996.716,797.426 998.5,798.5C 999.833,801.833 1001.17,805.167 1002.5,808.5C 1005.12,822.228 1005.79,835.895 1004.5,849.5C 1002.89,851.185 1002.89,862.851 1004.5,884.5C 1003.91,896.091 1001.91,907.425 998.5,918.5C 997.662,918.842 997.328,919.508 997.5,920.5C 996.463,921.93 995.796,923.597 995.5,925.5C 993,928.494 991,931.827 989.5,935.5C 986.195,939.141 982.862,942.808 979.5,946.5C 977.809,947.864 976.142,949.197 974.5,950.5C 971.518,952.474 968.518,954.474 965.5,956.5C 966.074,978.854 965.407,1001.19 963.5,1023.5C 957.167,1023.5 950.833,1023.5 944.5,1023.5C 944.868,1016.99 945.535,1010.66 946.5,1004.5C 947.65,992.535 947.817,978.535 947,962.5C 946.707,952.36 945.54,943.693 943.5,936.5C 941.148,919.72 938.148,903.053 934.5,886.5C 933.012,876.059 931.012,865.726 928.5,855.5C 929.097,855.265 929.43,854.765 929.5,854C 928.198,848.266 926.531,842.766 924.5,837.5C 918.621,817.206 910.954,797.539 901.5,778.5C 900.553,776.266 899.886,773.932 899.5,771.5C 899.59,768.305 900.923,765.972 903.5,764.5C 906.113,763.565 908.779,763.398 911.5,764C 912.696,764.654 912.696,765.154 911.5,765.5C 908.505,764.081 905.838,764.581 903.5,767C 906.578,766.872 909.745,767.372 913,768.5C 913.333,767.833 913.667,767.167 914,766.5C 917.194,772.229 920.361,777.896 923.5,783.5C 925.597,790.47 928.263,797.136 931.5,803.5C 932.398,808.534 934.065,813.201 936.5,817.5C 946.03,847.465 953.03,878.132 957.5,909.5C 956.844,910.622 956.511,911.955 956.5,913.5C 957.748,921.821 958.915,930.154 960,938.5C 960.483,937.552 960.649,936.552 960.5,935.5C 961.268,936.263 961.768,937.263 962,938.5C 965.038,935.631 967.871,932.631 970.5,929.5C 978.634,918.754 983.634,906.754 985.5,893.5C 985.369,894.239 985.536,894.906 986,895.5C 986.333,893.833 986.667,892.167 987,890.5C 987.167,879 987.333,867.5 987.5,856C 987.511,844.092 987.177,832.925 986.5,822.5C 985.662,822.158 985.328,821.492 985.5,820.5C 983.009,808.695 979.342,797.362 974.5,786.5C 959.451,743.737 939.618,703.404 915,665.5C 909.302,658.636 903.135,652.303 896.5,646.5C 894.351,644.254 891.684,642.754 888.5,642C 883.107,642.403 878.44,640.903 874.5,637.5C 872.032,635.158 871.866,632.492 874,629.5C 880.396,623.668 885.563,617.001 889.5,609.5C 893.187,602.961 896.02,595.961 898,588.5C 898.765,586.934 898.598,585.601 897.5,584.5C 897.263,583.209 897.596,582.209 898.5,581.5C 900.133,579.239 901.133,576.073 901.5,572C 901.472,570.93 901.139,570.097 900.5,569.5C 900.328,568.508 900.662,567.842 901.5,567.5C 904.487,556.971 905.487,546.304 904.5,535.5C 905.999,512.799 905.666,490.132 903.5,467.5C 904.559,461.971 904.393,456.305 903,450.5C 902.517,451.448 902.351,452.448 902.5,453.5C 901.298,444.418 899.631,435.418 897.5,426.5C 893.664,404.824 887.497,383.824 879,363.5C 872.9,347.948 863.4,334.948 850.5,324.5C 841.94,316.542 832.94,309.042 823.5,302C 806.107,290.309 788.44,279.142 770.5,268.5C 761.752,262.793 752.419,258.126 742.5,254.5C 739.088,253.925 736.088,252.592 733.5,250.5C 727.296,246.872 720.629,244.205 713.5,242.5C 688.83,234.416 663.83,228.083 638.5,223.5C 639.239,223.631 639.906,223.464 640.5,223C 630.763,220.734 621.097,219.9 611.5,220.5C 610.508,220.672 609.842,220.338 609.5,219.5C 577.463,215.364 545.463,215.697 513.5,220.5C 508.162,221.002 502.828,221.169 497.5,221C 495.877,218.92 494.377,216.754 493,214.5C 489.843,215.079 486.843,216.079 484,217.5C 482,216.833 480,216.167 478,215.5C 478.027,216.788 477.027,217.788 475,218.5C 475.195,216.874 475.195,215.207 475,213.5C 474.667,213.833 474.333,214.167 474,214.5C 472.933,213.809 471.766,213.309 470.5,213C 473.444,212.03 476.444,211.196 479.5,210.5C 478.675,209.614 477.675,209.281 476.5,209.5C 491.154,205.786 506.154,203.452 521.5,202.5C 523.735,202.795 525.735,202.461 527.5,201.5C 529.821,201.771 531.821,201.104 533.5,199.5C 555.709,200.375 577.709,200.375 599.5,199.5C 603.655,201.225 607.989,201.891 612.5,201.5 Z"/></g>
<g><path style="opacity:1" fill="#582705" d="M 609.5,219.5 C 606.167,219.5 602.833,219.5 599.5,219.5C 583.502,217.833 567.502,217.499 551.5,218.5C 538.813,218.809 526.146,219.476 513.5,220.5C 545.463,215.697 577.463,215.364 609.5,219.5 Z"/></g>
<g><path style="opacity:1" fill="#ebe077" d="M 599.5,219.5 C 596.686,220.165 593.686,220.498 590.5,220.5C 577.331,220.031 564.331,219.364 551.5,218.5C 567.502,217.499 583.502,217.833 599.5,219.5 Z"/></g>
<g><path style="opacity:1" fill="#7c7d00" d="M 95.5,760.5 C 96.8333,761.167 96.8333,761.167 95.5,760.5 Z"/></g>
<g><path style="opacity:1" fill="#f3ea7a" d="M 890.5,644.5 C 892.5,645.167 894.5,645.833 896.5,646.5C 903.135,652.303 909.302,658.636 915,665.5C 939.618,703.404 959.451,743.737 974.5,786.5C 961.716,756.226 947.549,725.893 932,695.5C 923.486,678.984 912.653,664.151 899.5,651C 895.722,648.932 892.722,646.765 890.5,644.5 Z"/></g>
<g><path style="opacity:1" fill="#f9fa00" d="M 987.5,762.5 C 988.525,762.897 988.692,763.563 988,764.5C 987.536,763.906 987.369,763.239 987.5,762.5 Z"/></g>
<g><path style="opacity:1" fill="#734913" d="M 923.5,783.5 C 920.361,777.896 917.194,772.229 914,766.5C 913.667,767.167 913.333,767.833 913,768.5C 909.745,767.372 906.578,766.872 903.5,767C 905.838,764.581 908.505,764.081 911.5,765.5C 912.696,765.154 912.696,764.654 911.5,764C 908.779,763.398 906.113,763.565 903.5,764.5C 906.396,760.954 909.73,760.62 913.5,763.5C 917.904,769.642 921.238,776.309 923.5,783.5 Z"/></g>
<g><path style="opacity:1" fill="#f9fa00" d="M 988.5,765.5 C 989.833,766.167 989.833,766.167 988.5,765.5 Z"/></g>
<g><path style="opacity:1" fill="#7c7d00" d="M 99.5,768.5 C 100.833,769.167 100.833,769.167 99.5,768.5 Z"/></g>
<g><path style="opacity:1" fill="#f9fa00" d="M 989.5,769.5 C 990.833,770.167 990.833,770.167 989.5,769.5 Z"/></g>
<g><path style="opacity:1" fill="#7c7d00" d="M 990.5,771.5 C 991.833,772.167 991.833,772.167 990.5,771.5 Z"/></g>
<g><path style="opacity:1" fill="#f9fa00" d="M 100.5,772.5 C 101.833,773.167 101.833,773.167 100.5,772.5 Z"/></g>
<g><path style="opacity:1" fill="#5e300a" d="M 180.5,768.5 C 180.414,769.496 180.748,770.329 181.5,771C 179.121,773.599 177.121,776.433 175.5,779.5C 176.376,775.418 178.043,771.751 180.5,768.5 Z"/></g>
<g><path style="opacity:1" fill="#a75150" d="M 101.5,774.5 C 102.833,775.167 102.833,775.167 101.5,774.5 Z"/></g>
<g><path style="opacity:1" fill="#5b2907" d="M 119.5,762.5 C 120.992,769.15 123.326,775.483 126.5,781.5C 121.54,775.937 119.207,769.604 119.5,762.5 Z"/></g>
<g><path style="opacity:1" fill="#d35100" d="M 104.5,785.5 C 103.475,785.103 103.308,784.437 104,783.5C 104.464,784.094 104.631,784.761 104.5,785.5 Z"/></g>
<g><path style="opacity:1" fill="#f90000" d="M 105.5,784.5 C 106.833,785.167 106.833,785.167 105.5,784.5 Z"/></g>
<g><path style="opacity:1" fill="#f90000" d="M 104.5,785.5 C 104.833,785.5 105.167,785.5 105.5,785.5C 105.315,786.17 104.981,786.17 104.5,785.5 Z"/></g>
<g><path style="opacity:1" fill="#572605" d="M 923.5,783.5 C 927.128,789.704 929.795,796.371 931.5,803.5C 928.263,797.136 925.597,790.47 923.5,783.5 Z"/></g>
<g><path style="opacity:1" fill="#7c7d00" d="M 104.5,786.5 C 103.833,787.167 103.833,787.167 104.5,786.5 Z"/></g>
<g><path style="opacity:1" fill="#c4453b" d="M 103.5,789.5 C 103.897,788.475 104.563,788.308 105.5,789C 104.906,789.464 104.239,789.631 103.5,789.5 Z"/></g>
<g><path style="opacity:1" fill="#9f7100" d="M 108.5,788.5 C 108.833,788.5 109.167,788.5 109.5,788.5C 109.5,789.167 109.5,789.833 109.5,790.5C 107.302,790.591 106.969,789.925 108.5,788.5 Z"/></g>
<g><path style="opacity:1" fill="#a75150" d="M 109.5,790.5 C 109.833,790.5 110.167,790.5 110.5,790.5C 110.315,791.17 109.981,791.17 109.5,790.5 Z"/></g>
<g><path style="opacity:1" fill="#b3752c" d="M 113.5,794.5 C 114.167,794.5 114.5,794.833 114.5,795.5C 114.328,796.492 114.662,797.158 115.5,797.5C 115.5,797.833 115.5,798.167 115.5,798.5C 114.624,798.631 113.957,798.298 113.5,797.5C 112.347,796.313 112.347,795.313 113.5,794.5 Z"/></g>
<g><path style="opacity:1" fill="#5c2a06" d="M 140.5,795.5 C 148.206,799.291 156.206,802.291 164.5,804.5C 164.44,805.043 164.107,805.376 163.5,805.5C 155.048,803.693 147.381,800.36 140.5,795.5 Z"/></g>
<g><path style="opacity:1" fill="#7c7d00" d="M 115.5,798.5 C 115.833,798.5 116.167,798.5 116.5,798.5C 116.315,799.17 115.981,799.17 115.5,798.5 Z"/></g>
<g><path style="opacity:1" fill="#f90000" d="M 119.5,804.5 C 120.833,805.167 120.833,805.167 119.5,804.5 Z"/></g>
<g><path style="opacity:1" fill="#7c7d3d" d="M 122.5,804.5 C 121.833,805.167 121.833,805.167 122.5,804.5 Z"/></g>
<g><path style="opacity:1" fill="#572405" d="M 931.5,803.5 C 933.935,807.799 935.602,812.466 936.5,817.5C 934.065,813.201 932.398,808.534 931.5,803.5 Z"/></g>
<g><path style="opacity:1" fill="#f90000" d="M 119.5,806.5 C 120.833,807.167 120.833,807.167 119.5,806.5 Z"/></g>
<g><path style="opacity:1" fill="#a7a850" d="M 1002.5,807.5 C 1003.83,808.167 1003.83,808.167 1002.5,807.5 Z"/></g>
<g><path style="opacity:1" fill="#f90000" d="M 131.5,811.5 C 130.833,812.167 130.833,812.167 131.5,811.5 Z"/></g>
<g><path style="opacity:1" fill="#7c7d00" d="M 134.5,814.5 C 133.833,813.167 133.833,813.167 134.5,814.5 Z"/></g>
<g><path style="opacity:1" fill="#7c7d00" d="M 129.5,814.5 C 130.833,815.167 130.833,815.167 129.5,814.5 Z"/></g>
<g><path style="opacity:1" fill="#f90000" d="M 134.5,814.5 C 135.833,815.167 135.833,815.167 134.5,814.5 Z"/></g>
<g><path style="opacity:1" fill="#f3ea7c" d="M 213.5,742.5 C 214.043,742.56 214.376,742.893 214.5,743.5C 196.651,774.573 183.818,807.573 176,842.5C 175.536,841.906 175.369,841.239 175.5,840.5C 176.504,835.158 177.504,829.825 178.5,824.5C 186.853,795.79 198.52,768.456 213.5,742.5 Z"/></g>
<g><path style="opacity:1" fill="#f9fa00" d="M 143.5,817.5 C 143.631,818.239 143.464,818.906 143,819.5C 142.308,818.563 142.475,817.897 143.5,817.5 Z"/></g>
<g><path style="opacity:1" fill="#f9fa00" d="M 1005.5,818.5 C 1006.83,819.167 1006.83,819.167 1005.5,818.5 Z"/></g>
<g><path style="opacity:1" fill="#7c7d00" d="M 145.5,819.5 C 146.833,820.167 146.833,820.167 145.5,819.5 Z"/></g>
<g><path style="opacity:1" fill="#de8d2a" d="M 148.5,821.5 C 149.209,820.596 150.209,820.263 151.5,820.5C 151.5,820.833 151.5,821.167 151.5,821.5C 150.5,821.5 149.5,821.5 148.5,821.5 Z"/></g>
<g><path style="opacity:1" fill="#f9fa00" d="M 148.5,821.5 C 147.833,822.167 147.833,822.167 148.5,821.5 Z"/></g>
<g><path style="opacity:1" fill="#7c7d00" d="M 151.5,821.5 C 152.833,822.167 152.833,822.167 151.5,821.5 Z"/></g>
<g><path style="opacity:1" fill="#9a9a00" d="M 1005.5,821.5 C 1006.57,822.251 1006.74,823.251 1006,824.5C 1005.52,823.552 1005.35,822.552 1005.5,821.5 Z"/></g>
<g><path style="opacity:1" fill="#f9fa00" d="M 155.5,822.5 C 156.833,823.167 156.833,823.167 155.5,822.5 Z"/></g>
<g><path style="opacity:1" fill="#f9fa00" d="M 156.5,825.5 C 157.833,826.167 157.833,826.167 156.5,825.5 Z"/></g>
<g><path style="opacity:1" fill="#f9fa00" d="M 1005.5,826.5 C 1006.83,827.167 1006.83,827.167 1005.5,826.5 Z"/></g>
<g><path style="opacity:1" fill="#4b1702" d="M 985.5,893.5 C 986.415,869.849 986.748,846.182 986.5,822.5C 987.177,832.925 987.511,844.092 987.5,856C 987.333,867.5 987.167,879 987,890.5C 986.667,892.167 986.333,893.833 986,895.5C 985.536,894.906 985.369,894.239 985.5,893.5 Z"/></g>
<g><path style="opacity:1" fill="#f90000" d="M 151.5,828.5 C 152.833,829.167 152.833,829.167 151.5,828.5 Z"/></g>
<g><path style="opacity:1" fill="#f9fa00" d="M 155.5,829.5 C 156.833,830.167 156.833,830.167 155.5,829.5 Z"/></g>
<g><path style="opacity:1" fill="#f3ea7a" d="M 901.5,778.5 C 910.954,797.539 918.621,817.206 924.5,837.5C 925.516,843.565 926.849,849.565 928.5,855.5C 931.012,865.726 933.012,876.059 934.5,886.5C 929.804,867.07 924.637,847.07 919,826.5C 914.11,810.33 907.943,794.663 900.5,779.5C 900.624,778.893 900.957,778.56 901.5,778.5 Z"/></g>
<g><path style="opacity:1" fill="#f9fa00" d="M 1006.5,831.5 C 1007.83,832.167 1007.83,832.167 1006.5,831.5 Z"/></g>
<g><path style="opacity:1" fill="#cece00" d="M 153.5,834.5 C 152.761,834.631 152.094,834.464 151.5,834C 152.437,833.308 153.103,833.475 153.5,834.5 Z"/></g>
<g><path style="opacity:1" fill="#b58b44" d="M 154.5,834.5 C 154.369,833.761 154.536,833.094 155,832.5C 155.692,833.437 155.525,834.103 154.5,834.5 Z"/></g>
<g><path style="opacity:1" fill="#7c7d00" d="M 1006.5,833.5 C 1007.83,834.167 1007.83,834.167 1006.5,833.5 Z"/></g>
<g><path style="opacity:1" fill="#f90000" d="M 153.5,834.5 C 153.833,834.5 154.167,834.5 154.5,834.5C 154.315,835.17 153.981,835.17 153.5,834.5 Z"/></g>
<g><path style="opacity:1" fill="#562406" d="M 178.5,824.5 C 177.504,829.825 176.504,835.158 175.5,840.5C 174.596,841.209 174.263,842.209 174.5,843.5C 173.876,843.083 173.543,842.416 173.5,841.5C 174.725,835.579 176.392,829.912 178.5,824.5 Z"/></g>
<g><path style="opacity:1" fill="#f9fa00" d="M 152.5,842.5 C 152.369,841.761 152.536,841.094 153,840.5C 153.692,841.437 153.525,842.103 152.5,842.5 Z"/></g>
<g><path style="opacity:1" fill="#572806" d="M 924.5,837.5 C 926.531,842.766 928.198,848.266 929.5,854C 929.43,854.765 929.097,855.265 928.5,855.5C 926.849,849.565 925.516,843.565 924.5,837.5 Z"/></g>
<g><path style="opacity:1" fill="#f9fa00" d="M 152.5,842.5 C 151.833,843.167 151.833,843.167 152.5,842.5 Z"/></g>
<g><path style="opacity:1" fill="#a75150" d="M 151.5,847.5 C 152.833,848.167 152.833,848.167 151.5,847.5 Z"/></g>
<g><path style="opacity:1" fill="#f9fa00" d="M 1006.5,849.5 C 1007.83,850.167 1007.83,850.167 1006.5,849.5 Z"/></g>
<g><path style="opacity:1" fill="#602d07" d="M 173.5,844.5 C 172.927,850.455 171.593,856.122 169.5,861.5C 169.833,855.484 171.166,849.817 173.5,844.5 Z"/></g>
<g><path style="opacity:1" fill="#f90000" d="M 148.5,858.5 C 149.833,859.167 149.833,859.167 148.5,858.5 Z"/></g>
<g><path style="opacity:1" fill="#f9fa00" d="M 1006.5,858.5 C 1007.83,859.167 1007.83,859.167 1006.5,858.5 Z"/></g>
<g><path style="opacity:1" fill="#f9fa00" d="M 1006.5,865.5 C 1007.83,866.167 1007.83,866.167 1006.5,865.5 Z"/></g>
<g><path style="opacity:1" fill="#f90000" d="M 147.5,866.5 C 148.833,867.167 148.833,867.167 147.5,866.5 Z"/></g>
<g><path style="opacity:1" fill="#512006" d="M 169.5,861.5 C 169.154,866.216 168.487,870.883 167.5,875.5C 166.861,874.903 166.528,874.07 166.5,873C 166.924,868.887 167.924,865.054 169.5,861.5 Z"/></g>
<g><path style="opacity:1" fill="#f9fa00" d="M 1006.5,867.5 C 1007.57,868.251 1007.74,869.251 1007,870.5C 1006.52,869.552 1006.35,868.552 1006.5,867.5 Z"/></g>
<g><path style="opacity:1" fill="#f9fa00" d="M 146.5,868.5 C 147.525,868.897 147.692,869.563 147,870.5C 146.536,869.906 146.369,869.239 146.5,868.5 Z"/></g>
<g><path style="opacity:1" fill="#f9fa00" d="M 1006.5,872.5 C 1007.6,873.601 1007.76,874.934 1007,876.5C 1006.51,875.207 1006.34,873.873 1006.5,872.5 Z"/></g>
<g><path style="opacity:1" fill="#f90000" d="M 143.5,874.5 C 144.833,875.167 144.833,875.167 143.5,874.5 Z"/></g>
<g><path style="opacity:1" fill="#72511b" d="M 1004.5,849.5 C 1005.81,861.137 1005.81,872.803 1004.5,884.5C 1002.89,862.851 1002.89,851.185 1004.5,849.5 Z"/></g>
<g><path style="opacity:1" fill="#e69e17" d="M 146.5,878.5 C 144.141,877.611 143.975,876.278 146,874.5C 146.49,875.793 146.657,877.127 146.5,878.5 Z"/></g>
<g><path style="opacity:1" fill="#f9fa00" d="M 1006.5,878.5 C 1007.83,879.167 1007.83,879.167 1006.5,878.5 Z"/></g>
<g><path style="opacity:1" fill="#f4ec77" d="M 985.5,820.5 C 985.328,821.492 985.662,822.158 986.5,822.5C 986.748,846.182 986.415,869.849 985.5,893.5C 983.634,906.754 978.634,918.754 970.5,929.5C 969.957,929.44 969.624,929.107 969.5,928.5C 977.971,916.927 982.805,903.927 984,889.5C 984.168,866.33 984.668,843.33 985.5,820.5 Z"/></g>
<g><path style="opacity:1" fill="#f9fa00" d="M 1006.5,881.5 C 1007.83,882.167 1007.83,882.167 1006.5,881.5 Z"/></g>
<g><path style="opacity:1" fill="#dace28" d="M 145.5,884.5 C 144.387,883.054 144.22,881.387 145,879.5C 145.494,881.134 145.66,882.801 145.5,884.5 Z"/></g>
<g><path style="opacity:1" fill="#521f03" d="M 166.5,877.5 C 165.833,882.833 165.167,888.167 164.5,893.5C 163.853,892.726 163.52,891.726 163.5,890.5C 164.034,885.351 165.034,881.018 166.5,877.5 Z"/></g>
<g><path style="opacity:1" fill="#c3c245" d="M 1005.5,886.5 C 1006.53,886.897 1006.69,887.563 1006,888.5C 1005.54,887.906 1005.37,887.239 1005.5,886.5 Z"/></g>
<g><path style="opacity:1" fill="#f9fa00" d="M 1004.5,896.5 C 1005.53,896.897 1005.69,897.563 1005,898.5C 1004.54,897.906 1004.37,897.239 1004.5,896.5 Z"/></g>
<g><path style="opacity:1" fill="#f9fa00" d="M 1006.5,898.5 C 1007.83,899.167 1007.83,899.167 1006.5,898.5 Z"/></g>
<g><path style="opacity:1" fill="#f9fa00" d="M 1004.5,899.5 C 1005.83,900.167 1005.83,900.167 1004.5,899.5 Z"/></g>
<g><path style="opacity:1" fill="#582706" d="M 163.5,895.5 C 162.833,901.833 162.167,908.167 161.5,914.5C 160.848,913.551 160.514,912.385 160.5,911C 160.928,905.012 161.928,899.845 163.5,895.5 Z"/></g>
<g><path style="opacity:1" fill="#f90000" d="M 107.5,901.5 C 108.833,902.167 108.833,902.167 107.5,901.5 Z"/></g>
<g><path style="opacity:1" fill="#c3c245" d="M 1003.5,901.5 C 1004.53,901.897 1004.69,902.563 1004,903.5C 1003.54,902.906 1003.37,902.239 1003.5,901.5 Z"/></g>
<g><path style="opacity:1" fill="#ede070" d="M 167.5,875.5 C 168.147,876.274 168.48,877.274 168.5,878.5C 161.647,916.344 158.313,954.344 158.5,992.5C 157.313,970.824 157.646,949.158 159.5,927.5C 160.283,923.307 160.949,918.973 161.5,914.5C 162.167,908.167 162.833,901.833 163.5,895.5C 164.338,895.158 164.672,894.492 164.5,893.5C 165.167,888.167 165.833,882.833 166.5,877.5C 167.338,877.158 167.672,876.492 167.5,875.5 Z"/></g>
<g><path style="opacity:1" fill="#9b623e" d="M 139.5,914.5 C 140.525,914.897 140.692,915.563 140,916.5C 139.536,915.906 139.369,915.239 139.5,914.5 Z"/></g>
<g><path style="opacity:1" fill="#592907" d="M 957.5,909.5 C 958.664,918.146 959.664,926.813 960.5,935.5C 960.649,936.552 960.483,937.552 960,938.5C 958.915,930.154 957.748,921.821 956.5,913.5C 956.511,911.955 956.844,910.622 957.5,909.5 Z"/></g>
<g><path style="opacity:1" fill="#f90000" d="M 139.5,917.5 C 140.833,918.167 140.833,918.167 139.5,917.5 Z"/></g>
<g><path style="opacity:1" fill="#a7a850" d="M 998.5,918.5 C 999.833,919.167 999.833,919.167 998.5,918.5 Z"/></g>
<g><path style="opacity:1" fill="#cece00" d="M 997.5,920.5 C 998.338,920.842 998.672,921.508 998.5,922.5C 997.662,922.158 997.328,921.492 997.5,920.5 Z"/></g>
<g><path style="opacity:1" fill="#a7a850" d="M 998.5,922.5 C 999.833,923.167 999.833,923.167 998.5,922.5 Z"/></g>
<g><path style="opacity:1" fill="#c4453b" d="M 138.5,923.5 C 139.525,923.897 139.692,924.563 139,925.5C 138.536,924.906 138.369,924.239 138.5,923.5 Z"/></g>
<g><path style="opacity:1" fill="#f90000" d="M 138.5,926.5 C 139.833,927.167 139.833,927.167 138.5,926.5 Z"/></g>
<g><path style="opacity:1" fill="#cece00" d="M 995.5,925.5 C 996.525,925.897 996.692,926.563 996,927.5C 995.536,926.906 995.369,926.239 995.5,925.5 Z"/></g>
<g><path style="opacity:1" fill="#f90000" d="M 138.5,927.5 C 138.5,927.833 138.5,928.167 138.5,928.5C 137.83,928.019 137.83,927.685 138.5,927.5 Z"/></g>
<g><path style="opacity:1" fill="#f90000" d="M 138.5,928.5 C 139.833,929.167 139.833,929.167 138.5,928.5 Z"/></g>
<g><path style="opacity:1" fill="#f90000" d="M 135.5,930.5 C 136.833,931.167 136.833,931.167 135.5,930.5 Z"/></g>
<g><path style="opacity:1" fill="#ea6600" d="M 137.5,931.5 C 138.613,932.946 138.78,934.613 138,936.5C 137.506,934.866 137.34,933.199 137.5,931.5 Z"/></g>
<g><path style="opacity:1" fill="#f9fa00" d="M 989.5,935.5 C 990.833,936.167 990.833,936.167 989.5,935.5 Z"/></g>
<g><path style="opacity:1" fill="#bb9b2c" d="M 138.5,941.5 C 135.999,941.489 135.832,940.822 138,939.5C 138.464,940.094 138.631,940.761 138.5,941.5 Z"/></g>
<g><path style="opacity:1" fill="#f9fa00" d="M 982.5,944.5 C 983.833,945.167 983.833,945.167 982.5,944.5 Z"/></g>
<g><path style="opacity:1" fill="#f9fa00" d="M 979.5,946.5 C 980.833,947.167 980.833,947.167 979.5,946.5 Z"/></g>
<g><path style="opacity:1" fill="#959631" d="M 974.5,950.5 C 975.833,951.167 975.833,951.167 974.5,950.5 Z"/></g>
<g><path style="opacity:1" fill="#f9fa00" d="M 981.5,951.5 C 981.897,950.475 982.563,950.308 983.5,951C 982.906,951.464 982.239,951.631 981.5,951.5 Z"/></g>
<g><path style="opacity:1" fill="#bfa036" d="M 136.5,944.5 C 137.65,949.316 137.816,954.316 137,959.5C 136.501,954.511 136.334,949.511 136.5,944.5 Z"/></g>
<g><path style="opacity:1" fill="#f9fa00" d="M 967.5,956.5 C 968.833,957.167 968.833,957.167 967.5,956.5 Z"/></g>
<g><path style="opacity:1" fill="#a77d24" d="M 965.5,957.5 C 966.833,958.167 966.833,958.167 965.5,957.5 Z"/></g>
<g><path style="opacity:1" fill="#f9fa00" d="M 965.5,959.5 C 966.833,960.167 966.833,960.167 965.5,959.5 Z"/></g>
<g><path style="opacity:1" fill="#f9fa00" d="M 136.5,962.5 C 137.713,963.497 137.546,964.497 136,965.5C 135.53,964.423 135.697,963.423 136.5,962.5 Z"/></g>
<g><path style="opacity:1" fill="#cece00" d="M 965.5,962.5 C 966.525,962.897 966.692,963.563 966,964.5C 965.536,963.906 965.369,963.239 965.5,962.5 Z"/></g>
<g><path style="opacity:1" fill="#f9fa00" d="M 135.5,966.5 C 136.525,966.897 136.692,967.563 136,968.5C 135.536,967.906 135.369,967.239 135.5,966.5 Z"/></g>
<g><path style="opacity:1" fill="#f9fa00" d="M 966.5,966.5 C 967.833,967.167 967.833,967.167 966.5,966.5 Z"/></g>
<g><path style="opacity:1" fill="#f9fa00" d="M 966.5,967.5 C 965.833,968.167 965.833,968.167 966.5,967.5 Z"/></g>
<g><path style="opacity:1" fill="#7c7d00" d="M 135.5,970.5 C 136.833,971.167 136.833,971.167 135.5,970.5 Z"/></g>
<g><path style="opacity:1" fill="#f9fa00" d="M 135.5,972.5 C 136.833,973.167 136.833,973.167 135.5,972.5 Z"/></g>
<g><path style="opacity:1" fill="#d35100" d="M 135.5,975.5 C 136.525,975.897 136.692,976.563 136,977.5C 135.536,976.906 135.369,976.239 135.5,975.5 Z"/></g>
<g><path style="opacity:1" fill="#a7a850" d="M 966.5,977.5 C 967.833,978.167 967.833,978.167 966.5,977.5 Z"/></g>
<g><path style="opacity:1" fill="#7c7d00" d="M 135.5,978.5 C 136.833,979.167 136.833,979.167 135.5,978.5 Z"/></g>
<g><path style="opacity:1" fill="#572606" d="M 159.5,927.5 C 157.646,949.158 157.313,970.824 158.5,992.5C 159.233,1002.16 159.9,1011.83 160.5,1021.5C 158.959,1017.67 158.126,1013 158,1007.5C 155.822,980.13 156.155,952.796 159,925.5C 159.464,926.094 159.631,926.761 159.5,927.5 Z"/></g>
<g><path style="opacity:1" fill="#9a9a00" d="M 966.5,979.5 C 967.573,980.251 967.74,981.251 967,982.5C 966.517,981.552 966.351,980.552 966.5,979.5 Z"/></g>
<g><path style="opacity:1" fill="#f90000" d="M 136.5,982.5 C 137.833,983.167 137.833,983.167 136.5,982.5 Z"/></g>
<g><path style="opacity:1" fill="#f9fa00" d="M 136.5,983.5 C 135.833,984.167 135.833,984.167 136.5,983.5 Z"/></g>
<g><path style="opacity:1" fill="#a4a400" d="M 966.5,984.5 C 967.525,984.897 967.692,985.563 967,986.5C 966.536,985.906 966.369,985.239 966.5,984.5 Z"/></g>
<g><path style="opacity:1" fill="#b1a02f" d="M 137.5,991.5 C 137.167,991.5 136.833,991.5 136.5,991.5C 136.185,989.774 136.019,988.107 136,986.5C 137.269,987.905 137.769,989.571 137.5,991.5 Z"/></g>
<g><path style="opacity:1" fill="#441202" d="M 946.5,1004.5 C 947.059,981.753 946.059,959.087 943.5,936.5C 945.54,943.693 946.707,952.36 947,962.5C 947.817,978.535 947.65,992.535 946.5,1004.5 Z"/></g>
<g><path style="opacity:1" fill="#e23021" d="M 136.5,991.5 C 136.833,991.5 137.167,991.5 137.5,991.5C 137.544,999.176 136.877,999.342 135.5,992C 135.728,991.601 136.062,991.435 136.5,991.5 Z"/></g>
<g><path style="opacity:1" fill="#b9b900" d="M 966.5,992.5 C 967.573,993.251 967.74,994.251 967,995.5C 966.517,994.552 966.351,993.552 966.5,992.5 Z"/></g>
<g><path style="opacity:1" fill="#7c7d00" d="M 136.5,998.5 C 137.833,999.167 137.833,999.167 136.5,998.5 Z"/></g>
<g><path style="opacity:1" fill="#f90000" d="M 136.5,1000.5 C 137.833,1001.17 137.833,1001.17 136.5,1000.5 Z"/></g>
<g><path style="opacity:1" fill="#e07f00" d="M 136.5,1005.5 C 137.077,1004.23 137.743,1004.23 138.5,1005.5C 138.03,1006.46 137.363,1006.46 136.5,1005.5 Z"/></g>
<g><path style="opacity:1" fill="#7c7d00" d="M 137.5,1007.5 C 138.833,1008.17 138.833,1008.17 137.5,1007.5 Z"/></g>
<g><path style="opacity:1" fill="#cece00" d="M 965.5,1007.5 C 966.613,1008.95 966.78,1010.61 966,1012.5C 965.506,1010.87 965.34,1009.2 965.5,1007.5 Z"/></g>
<g><path style="opacity:1" fill="#f9fa00" d="M 135.5,1009.5 C 136.833,1010.17 136.833,1010.17 135.5,1009.5 Z"/></g>
<g><path style="opacity:1" fill="#b68708" d="M 137.5,1009.5 C 138.629,1011.63 138.796,1013.96 138,1016.5C 137.503,1014.19 137.337,1011.86 137.5,1009.5 Z"/></g>
<g><path style="opacity:1" fill="#ba7d3d" d="M 965.5,1014.5 C 966.833,1015.17 966.833,1015.17 965.5,1014.5 Z"/></g>
<g><path style="opacity:1" fill="#7c7d00" d="M 965.5,1017.5 C 966.833,1018.17 966.833,1018.17 965.5,1017.5 Z"/></g>
<g><path style="opacity:1" fill="#f9fa00" d="M 135.5,1023.5 C 136.167,1022.17 136.833,1022.17 137.5,1023.5C 136.833,1023.5 136.167,1023.5 135.5,1023.5 Z"/></g>
<g><path style="opacity:1" fill="#959631" d="M 965.5,1023.5 C 964.833,1022.17 964.833,1022.17 965.5,1023.5 Z"/></g>
</svg>
